<svg width="32" height="32" viewBox="0 0 32 32" fill="none" xmlns="http://www.w3.org/2000/svg">
<path d="M27.6599 4.34387C26.1598 2.84433 24.1255 2.00195 22.0043 2.00195C19.8832 2.00195 17.8489 2.84433 16.3487 4.34387L7.5862 13.0001C7.39989 13.1853 7.25216 13.4056 7.15153 13.6483C7.0509 13.891 6.99938 14.1512 6.99995 14.4139V23.5864L3.29245 27.2926C3.19954 27.3855 3.12583 27.4958 3.07555 27.6172C3.02527 27.7386 2.99939 27.8687 2.99939 28.0001C2.99939 28.1315 3.02527 28.2616 3.07555 28.383C3.12583 28.5044 3.19954 28.6147 3.29245 28.7076C3.48009 28.8953 3.73458 29.0007 3.99995 29.0007C4.13134 29.0007 4.26145 28.9748 4.38284 28.9245C4.50424 28.8742 4.61454 28.8005 4.70745 28.7076L8.41495 25.0001H17.5874C17.8498 25.0005 18.1097 24.9491 18.3521 24.8487C18.5945 24.7483 18.8147 24.6009 18.9999 24.4151L27.6537 15.6651C28.3981 14.9225 28.9888 14.0405 29.3921 13.0694C29.7953 12.0983 30.0032 11.0573 30.0037 10.0058C30.0043 8.95432 29.7976 7.91304 29.3954 6.94152C28.9933 5.97 28.4035 5.08729 27.6599 4.34387ZM17.7587 5.75762C18.8634 4.65246 20.3556 4.02186 21.918 3.99992C23.4805 3.97799 24.9898 4.56646 26.1251 5.64017C27.2603 6.71388 27.932 8.18812 27.9971 9.74935C28.0622 11.3106 27.5156 12.8356 26.4737 14.0001H19.4162L23.7099 9.70762C23.8976 9.51998 24.003 9.26548 24.003 9.00012C24.003 8.73476 23.8976 8.48026 23.7099 8.29262C23.5223 8.10498 23.2678 7.99956 23.0024 7.99956C22.7371 7.99956 22.4826 8.10498 22.2949 8.29262L14.9999 15.5864V8.48387L17.7587 5.75762ZM8.99995 14.4189L12.9999 10.4601V17.5851L8.99995 21.5851V14.4189ZM17.5874 23.0001H10.4149L17.4149 16.0001H24.5074L17.5874 23.0001Z" fill="#1A60FE"/>
</svg>
