<svg width="103" height="30" viewBox="0 0 103 30" fill="none" xmlns="http://www.w3.org/2000/svg">
<path d="M31.3327 14.9678L17.5 14.9678L19.3015 11.8153C22.5184 6.21783 28.5018 2.74356 35 2.74356L35 0.427391L19.1728 0.42739C14.0257 0.42739 9.2647 3.38695 7.01286 8.08364L3.66727 15.0322L17.5 15.0322L15.6985 18.1847C12.4816 23.7822 6.49816 27.2564 -1.17273e-06 27.2564L-1.27398e-06 29.5726L15.8272 29.5726C20.9743 29.5726 25.7353 26.6131 27.9871 21.9164L31.3327 14.9678Z" fill="#1A60FE"/>
<path d="M47.8174 18.8703C47.8174 19.3596 47.7168 19.8187 47.5158 20.2476C47.3214 20.6765 47.0567 21.0518 46.7216 21.3735C46.3932 21.6952 46.0079 21.9499 45.5655 22.1375C45.1299 22.3185 44.6675 22.409 44.1782 22.409H43.1428C42.6536 22.409 42.1878 22.3185 41.7454 22.1375C41.3098 21.9499 40.9245 21.6952 40.5894 21.3735C40.261 21.0518 39.9963 20.6765 39.7952 20.2476C39.6008 19.8187 39.5037 19.3596 39.5037 18.8703V18.2973L40.8005 18.0862V18.8703C40.8005 19.192 40.8641 19.4936 40.9915 19.7751C41.1255 20.0499 41.3031 20.2945 41.5243 20.509C41.7454 20.7167 42.0001 20.8809 42.2883 21.0016C42.5832 21.1222 42.8915 21.1825 43.2132 21.1825H44.1179C44.4396 21.1825 44.7445 21.1222 45.0327 21.0016C45.3209 20.8809 45.5756 20.7167 45.7967 20.509C46.0179 20.2945 46.1922 20.0499 46.3195 19.7751C46.4535 19.4936 46.5206 19.192 46.5206 18.8703V18.4381C46.5206 17.9421 46.4234 17.53 46.229 17.2016C46.0347 16.8732 45.7766 16.5951 45.4549 16.3672C45.1333 16.1326 44.768 15.9349 44.3592 15.7741C43.9571 15.6132 43.5416 15.4524 43.1126 15.2915C42.6837 15.1307 42.2648 14.9531 41.856 14.7587C41.4539 14.5644 41.092 14.3231 40.7703 14.0349C40.4486 13.74 40.1906 13.3815 39.9963 12.9593C39.8019 12.5371 39.7047 12.0177 39.7047 11.4011V11.1297C39.7047 10.6404 39.7952 10.1813 39.9761 9.75241C40.1638 9.32349 40.4185 8.94818 40.7402 8.62649C41.0619 8.3048 41.4372 8.05348 41.8661 7.87253C42.3017 7.68488 42.7641 7.59105 43.2534 7.59105H44.1782C44.6675 7.59105 45.1266 7.68488 45.5555 7.87253C45.9844 8.05348 46.3597 8.3048 46.6814 8.62649C47.0031 8.94818 47.2544 9.32349 47.4354 9.75241C47.623 10.1813 47.7168 10.6404 47.7168 11.1297V11.5016L46.42 11.7127V11.1297C46.42 10.808 46.3597 10.5097 46.2391 10.2349C46.1184 9.95347 45.9542 9.70885 45.7465 9.50109C45.5387 9.29333 45.2941 9.12914 45.0126 9.0085C44.7378 8.88787 44.4396 8.82755 44.1179 8.82755H43.3137C42.992 8.82755 42.6904 8.88787 42.4089 9.0085C42.1342 9.12914 41.8895 9.29333 41.6751 9.50109C41.4673 9.70885 41.3031 9.95347 41.1825 10.2349C41.0619 10.5097 41.0015 10.808 41.0015 11.1297V11.4011C41.0015 11.8635 41.0987 12.2522 41.2931 12.5672C41.4874 12.8822 41.7454 13.1536 42.0671 13.3815C42.3888 13.6027 42.7507 13.797 43.1528 13.9646C43.5617 14.1254 43.9805 14.2929 44.4095 14.4672C44.8384 14.6347 45.2539 14.8224 45.656 15.0302C46.0648 15.2312 46.4301 15.4825 46.7518 15.7841C47.0735 16.079 47.3315 16.4409 47.5258 16.8698C47.7202 17.2988 47.8174 17.8215 47.8174 18.4381V18.8703Z" fill="#1A60FE"/>
<path d="M56.9731 19.383C56.9731 19.7986 56.8927 20.1906 56.7318 20.5592C56.5777 20.9278 56.3632 21.2495 56.0885 21.5243C55.8137 21.7991 55.492 22.0169 55.1234 22.1777C54.7548 22.3319 54.3627 22.409 53.9472 22.409H53.1229C52.7073 22.409 52.3153 22.3319 51.9467 22.1777C51.5781 22.0169 51.2564 21.7991 50.9816 21.5243C50.7068 21.2495 50.489 20.9278 50.3282 20.5592C50.174 20.1906 50.097 19.7986 50.097 19.383V14.7386C50.097 14.3231 50.174 13.931 50.3282 13.5624C50.489 13.1938 50.7068 12.8721 50.9816 12.5974C51.2564 12.3226 51.5781 12.1081 51.9467 11.954C52.3153 11.7931 52.7073 11.7127 53.1229 11.7127H53.9472C54.3627 11.7127 54.7548 11.7931 55.1234 11.954C55.492 12.1081 55.8137 12.3226 56.0885 12.5974C56.3632 12.8721 56.5777 13.1938 56.7318 13.5624C56.8927 13.931 56.9731 14.3231 56.9731 14.7386V19.383ZM55.7366 14.6683C55.7366 14.4203 55.6897 14.1891 55.5959 13.9746C55.502 13.7534 55.3747 13.5624 55.2139 13.4016C55.053 13.2408 54.862 13.1134 54.6408 13.0196C54.4264 12.9258 54.1952 12.8788 53.9472 12.8788H53.1229C52.8749 12.8788 52.6403 12.9258 52.4192 13.0196C52.2047 13.1134 52.017 13.2408 51.8562 13.4016C51.6954 13.5624 51.568 13.7534 51.4742 13.9746C51.3804 14.1891 51.3335 14.4203 51.3335 14.6683V19.4534C51.3335 19.7014 51.3804 19.9359 51.4742 20.1571C51.568 20.3716 51.6954 20.5592 51.8562 20.7201C52.017 20.8809 52.2047 21.0083 52.4192 21.1021C52.6403 21.1959 52.8749 21.2428 53.1229 21.2428H53.9472C54.1952 21.2428 54.4264 21.1959 54.6408 21.1021C54.862 21.0083 55.053 20.8809 55.2139 20.7201C55.3747 20.5592 55.502 20.3716 55.5959 20.1571C55.6897 19.9359 55.7366 19.7014 55.7366 19.4534V14.6683Z" fill="#1A60FE"/>
<path d="M62.8818 8.96829C62.674 8.96829 62.4797 9.0085 62.2987 9.08892C62.1245 9.16264 61.9703 9.26652 61.8363 9.40056C61.7022 9.5346 61.595 9.69209 61.5146 9.87305C61.4409 10.054 61.404 10.2484 61.404 10.4561V11.9138H63.8066V13.09H61.404V22.2079H60.1675V13.09H58.3077V11.9138H60.1675V10.5164C60.1675 10.1411 60.2379 9.78927 60.3786 9.46088C60.5193 9.12578 60.7137 8.83425 60.9617 8.58628C61.2096 8.33831 61.4978 8.14396 61.8262 8.00322C62.1546 7.86248 62.5065 7.79211 62.8818 7.79211H64.0177V8.96829H62.8818Z" fill="#1A60FE"/>
<path d="M68.901 22.2079C68.5257 22.2079 68.1705 22.1375 67.8354 21.9968C67.507 21.856 67.2188 21.6617 66.9709 21.4137C66.7296 21.1657 66.5352 20.8776 66.3878 20.5492C66.2471 20.2208 66.1767 19.8689 66.1767 19.4936V13.09H64.327V11.9138H66.1767V9.44077L67.4132 9.23972V11.9138H70.0269V13.09H67.4132V19.5539C67.4132 19.7617 67.4501 19.9561 67.5238 20.137C67.6042 20.3113 67.7114 20.4654 67.8455 20.5994C67.9795 20.7335 68.137 20.8407 68.3179 20.9211C68.4989 20.9949 68.6933 21.0317 68.901 21.0317H70.0269V22.2079H68.901Z" fill="#1A60FE"/>
<path d="M80.5197 18.8703C80.5197 19.3596 80.4259 19.8187 80.2382 20.2476C80.0573 20.6765 79.8059 21.0518 79.4842 21.3735C79.1626 21.6952 78.7873 21.9499 78.3583 22.1375C77.9294 22.3185 77.4703 22.409 76.9811 22.409H75.9557C75.4665 22.409 75.004 22.3185 74.5684 22.1375C74.1395 21.9499 73.7642 21.6952 73.4425 21.3735C73.1208 21.0518 72.8661 20.6765 72.6785 20.2476C72.4975 19.8187 72.407 19.3596 72.407 18.8703V11.1297C72.407 10.6404 72.4975 10.1813 72.6785 9.75241C72.8661 9.32349 73.1208 8.94818 73.4425 8.62649C73.7642 8.3048 74.1395 8.05348 74.5684 7.87253C75.004 7.68488 75.4665 7.59105 75.9557 7.59105H76.9811C77.4703 7.59105 77.9294 7.68488 78.3583 7.87253C78.7873 8.05348 79.1626 8.3048 79.4842 8.62649C79.8059 8.94818 80.0573 9.32349 80.2382 9.75241C80.4259 10.1813 80.5197 10.6404 80.5197 11.1297V11.7127L79.2229 11.9138V11.1297C79.2229 10.808 79.1626 10.5097 79.0419 10.2349C78.9213 9.95347 78.7571 9.70885 78.5493 9.50109C78.3416 9.29333 78.097 9.12914 77.8155 9.0085C77.5407 8.88787 77.2425 8.82755 76.9208 8.82755H76.016C75.6943 8.82755 75.3927 8.88787 75.1113 9.0085C74.8365 9.12914 74.5919 9.29333 74.3774 9.50109C74.1696 9.70885 74.0054 9.95347 73.8848 10.2349C73.7642 10.5097 73.7039 10.808 73.7039 11.1297V18.8703C73.7039 19.192 73.7642 19.4936 73.8848 19.7751C74.0054 20.0499 74.1696 20.2945 74.3774 20.509C74.5919 20.7167 74.8365 20.8809 75.1113 21.0016C75.3927 21.1222 75.6943 21.1825 76.016 21.1825H76.9208C77.2425 21.1825 77.5407 21.1222 77.8155 21.0016C78.097 20.8809 78.3416 20.7167 78.5493 20.509C78.7571 20.2945 78.9213 20.0499 79.0419 19.7751C79.1626 19.4936 79.2229 19.192 79.2229 18.8703V18.0862L80.5197 18.2973V18.8703Z" fill="#1A60FE"/>
<path d="M85.9257 13.09C85.6777 13.09 85.4432 13.1369 85.222 13.2307C85.0076 13.3245 84.8199 13.4519 84.6591 13.6127C84.4982 13.7736 84.3709 13.9646 84.277 14.1857C84.1832 14.4002 84.1363 14.6314 84.1363 14.8794V22.2079H82.8998V11.9138H83.312L83.9855 12.9593C84.267 12.5773 84.6188 12.2757 85.0411 12.0545C85.47 11.8267 85.9358 11.7127 86.4384 11.7127H87.1622V13.09H85.9257Z" fill="#1A60FE"/>
<path d="M95.1719 22.2079L94.4883 21.1825C94.2069 21.5511 93.855 21.8493 93.4328 22.0772C93.0106 22.2984 92.5481 22.409 92.0455 22.409H91.7339C91.3183 22.409 90.9263 22.3319 90.5577 22.1777C90.1891 22.0169 89.8674 21.7991 89.5926 21.5243C89.3178 21.2495 89.1 20.9278 88.9392 20.5592C88.785 20.1906 88.7079 19.7986 88.7079 19.383V19.2825C88.7079 18.867 88.785 18.4749 88.9392 18.1063C89.1 17.7377 89.3178 17.416 89.5926 17.1413C89.8674 16.8665 90.1891 16.652 90.5577 16.4979C90.9263 16.337 91.3183 16.2566 91.7339 16.2566H94.3476V14.6683C94.3476 14.4203 94.3007 14.1891 94.2069 13.9746C94.113 13.7534 93.9857 13.5624 93.8248 13.4016C93.664 13.2408 93.473 13.1134 93.2518 13.0196C93.0374 12.9258 92.8062 12.8788 92.5582 12.8788H91.8344C91.5864 12.8788 91.3518 12.9258 91.1307 13.0196C90.9162 13.1134 90.7286 13.2408 90.5677 13.4016C90.4069 13.5624 90.2795 13.7534 90.1857 13.9746C90.0919 14.1891 90.045 14.4203 90.045 14.6683V15.0402L88.8085 14.8392V14.7386C88.8085 14.3231 88.8855 13.931 89.0397 13.5624C89.2005 13.1938 89.4183 12.8721 89.6931 12.5974C89.9679 12.3226 90.2896 12.1081 90.6582 11.954C91.0268 11.7931 91.4189 11.7127 91.8344 11.7127H92.5582C92.9737 11.7127 93.3658 11.7931 93.7344 11.954C94.103 12.1081 94.4247 12.3226 94.6994 12.5974C94.9742 12.8721 95.1887 13.1938 95.3428 13.5624C95.5037 13.931 95.5841 14.3231 95.5841 14.7386V22.2079H95.1719ZM94.3476 17.2217H91.7339C91.4859 17.2217 91.2513 17.2686 91.0302 17.3624C90.8157 17.4562 90.628 17.5869 90.4672 17.7545C90.3063 17.9153 90.179 18.1063 90.0852 18.3275C89.9914 18.542 89.9444 18.7732 89.9444 19.0211V19.4534C89.9444 19.7014 89.9914 19.9359 90.0852 20.1571C90.179 20.3716 90.3063 20.5592 90.4672 20.7201C90.628 20.8809 90.8157 21.0083 91.0302 21.1021C91.2513 21.1959 91.4859 21.2428 91.7339 21.2428H92.5582C92.8062 21.2428 93.0374 21.1959 93.2518 21.1021C93.473 21.0083 93.664 20.8809 93.8248 20.7201C93.9857 20.5592 94.113 20.3716 94.2069 20.1571C94.3007 19.9359 94.3476 19.7014 94.3476 19.4534V17.2217Z" fill="#1A60FE"/>
<path d="M101.493 8.96829C101.285 8.96829 101.091 9.0085 100.91 9.08892C100.735 9.16264 100.581 9.26652 100.447 9.40056C100.313 9.5346 100.206 9.69209 100.126 9.87305C100.052 10.054 100.015 10.2484 100.015 10.4561V11.9138H102.418V13.09H100.015V22.2079H98.7785V13.09H96.9187V11.9138H98.7785V10.5164C98.7785 10.1411 98.8489 9.78927 98.9896 9.46088C99.1303 9.12578 99.3247 8.83425 99.5727 8.58628C99.8206 8.33831 100.109 8.14396 100.437 8.00322C100.766 7.86248 101.117 7.79211 101.493 7.79211H102.629V8.96829H101.493Z" fill="#1A60FE"/>
</svg>
