<svg width="789" height="218" viewBox="0 0 789 218" fill="none" xmlns="http://www.w3.org/2000/svg">
<rect x="0.5" y="28.5" width="311" height="189" rx="9.5" fill="#FEFDF9"/>
<rect x="0.5" y="28.5" width="311" height="189" rx="9.5" stroke="#99989C"/>
<path d="M29.432 55.49V57.164H26.102V68H24.05V57.164H20.702V55.49H29.432ZM35.8122 68.162C34.8762 68.162 34.0302 67.952 33.2742 67.532C32.5182 67.1 31.9242 66.5 31.4922 65.732C31.0602 64.952 30.8442 64.052 30.8442 63.032C30.8442 62.024 31.0662 61.13 31.5102 60.35C31.9542 59.57 32.5602 58.97 33.3282 58.55C34.0962 58.13 34.9542 57.92 35.9022 57.92C36.8502 57.92 37.7082 58.13 38.4762 58.55C39.2442 58.97 39.8502 59.57 40.2942 60.35C40.7382 61.13 40.9602 62.024 40.9602 63.032C40.9602 64.04 40.7322 64.934 40.2762 65.714C39.8202 66.494 39.1962 67.1 38.4042 67.532C37.6242 67.952 36.7602 68.162 35.8122 68.162ZM35.8122 66.38C36.3402 66.38 36.8322 66.254 37.2882 66.002C37.7562 65.75 38.1342 65.372 38.4222 64.868C38.7102 64.364 38.8542 63.752 38.8542 63.032C38.8542 62.312 38.7162 61.706 38.4402 61.214C38.1642 60.71 37.7982 60.332 37.3422 60.08C36.8862 59.828 36.3942 59.702 35.8662 59.702C35.3382 59.702 34.8462 59.828 34.3902 60.08C33.9462 60.332 33.5922 60.71 33.3282 61.214C33.0642 61.706 32.9322 62.312 32.9322 63.032C32.9322 64.1 33.2022 64.928 33.7422 65.516C34.2942 66.092 34.9842 66.38 35.8122 66.38ZM45.3827 59.756V65.246C45.3827 65.618 45.4667 65.888 45.6347 66.056C45.8147 66.212 46.1147 66.29 46.5347 66.29H47.7947V68H46.1747C45.2507 68 44.5427 67.784 44.0507 67.352C43.5587 66.92 43.3127 66.218 43.3127 65.246V59.756H42.1427V58.082H43.3127V55.616H45.3827V58.082H47.7947V59.756H45.3827ZM49.0019 62.996C49.0019 62 49.2059 61.118 49.6139 60.35C50.0339 59.582 50.5979 58.988 51.3059 58.568C52.0259 58.136 52.8179 57.92 53.6819 57.92C54.4619 57.92 55.1399 58.076 55.7159 58.388C56.3039 58.688 56.7719 59.066 57.1199 59.522V58.082H59.1899V68H57.1199V66.524C56.7719 66.992 56.2979 67.382 55.6979 67.694C55.0979 68.006 54.4139 68.162 53.6459 68.162C52.7939 68.162 52.0139 67.946 51.3059 67.514C50.5979 67.07 50.0339 66.458 49.6139 65.678C49.2059 64.886 49.0019 63.992 49.0019 62.996ZM57.1199 63.032C57.1199 62.348 56.9759 61.754 56.6879 61.25C56.4119 60.746 56.0459 60.362 55.5899 60.098C55.1339 59.834 54.6419 59.702 54.1139 59.702C53.5859 59.702 53.0939 59.834 52.6379 60.098C52.1819 60.35 51.8099 60.728 51.5219 61.232C51.2459 61.724 51.1079 62.312 51.1079 62.996C51.1079 63.68 51.2459 64.28 51.5219 64.796C51.8099 65.312 52.1819 65.708 52.6379 65.984C53.1059 66.248 53.5979 66.38 54.1139 66.38C54.6419 66.38 55.1339 66.248 55.5899 65.984C56.0459 65.72 56.4119 65.336 56.6879 64.832C56.9759 64.316 57.1199 63.716 57.1199 63.032ZM63.9372 54.68V68H61.8852V54.68H63.9372ZM73.359 57.146V60.818H77.679V62.492H73.359V66.326H78.219V68H71.307V55.472H78.219V57.146H73.359ZM92.7525 57.92C93.5325 57.92 94.2285 58.082 94.8405 58.406C95.4645 58.73 95.9505 59.21 96.2985 59.846C96.6585 60.482 96.8385 61.25 96.8385 62.15V68H94.8045V62.456C94.8045 61.568 94.5825 60.89 94.1385 60.422C93.6945 59.942 93.0885 59.702 92.3205 59.702C91.5525 59.702 90.9405 59.942 90.4845 60.422C90.0405 60.89 89.8185 61.568 89.8185 62.456V68H87.7845V62.456C87.7845 61.568 87.5625 60.89 87.1185 60.422C86.6745 59.942 86.0685 59.702 85.3005 59.702C84.5325 59.702 83.9205 59.942 83.4645 60.422C83.0205 60.89 82.7985 61.568 82.7985 62.456V68H80.7465V58.082H82.7985V59.216C83.1345 58.808 83.5605 58.49 84.0765 58.262C84.5925 58.034 85.1445 57.92 85.7325 57.92C86.5245 57.92 87.2325 58.088 87.8565 58.424C88.4805 58.76 88.9605 59.246 89.2965 59.882C89.5965 59.282 90.0645 58.808 90.7005 58.46C91.3365 58.1 92.0205 57.92 92.7525 57.92ZM101.502 59.54C101.85 59.084 102.324 58.7 102.924 58.388C103.524 58.076 104.202 57.92 104.958 57.92C105.822 57.92 106.608 58.136 107.316 58.568C108.036 58.988 108.6 59.582 109.008 60.35C109.416 61.118 109.62 62 109.62 62.996C109.62 63.992 109.416 64.886 109.008 65.678C108.6 66.458 108.036 67.07 107.316 67.514C106.608 67.946 105.822 68.162 104.958 68.162C104.202 68.162 103.53 68.012 102.942 67.712C102.354 67.4 101.874 67.016 101.502 66.56V72.716H99.4496V58.082H101.502V59.54ZM107.532 62.996C107.532 62.312 107.388 61.724 107.1 61.232C106.824 60.728 106.452 60.35 105.984 60.098C105.528 59.834 105.036 59.702 104.508 59.702C103.992 59.702 103.5 59.834 103.032 60.098C102.576 60.362 102.204 60.746 101.916 61.25C101.64 61.754 101.502 62.348 101.502 63.032C101.502 63.716 101.64 64.316 101.916 64.832C102.204 65.336 102.576 65.72 103.032 65.984C103.5 66.248 103.992 66.38 104.508 66.38C105.036 66.38 105.528 66.248 105.984 65.984C106.452 65.708 106.824 65.312 107.1 64.796C107.388 64.28 107.532 63.68 107.532 62.996ZM113.701 54.68V68H111.649V54.68H113.701ZM120.697 68.162C119.761 68.162 118.915 67.952 118.159 67.532C117.403 67.1 116.809 66.5 116.377 65.732C115.945 64.952 115.729 64.052 115.729 63.032C115.729 62.024 115.951 61.13 116.395 60.35C116.839 59.57 117.445 58.97 118.213 58.55C118.981 58.13 119.839 57.92 120.787 57.92C121.735 57.92 122.593 58.13 123.361 58.55C124.129 58.97 124.735 59.57 125.179 60.35C125.623 61.13 125.845 62.024 125.845 63.032C125.845 64.04 125.617 64.934 125.161 65.714C124.705 66.494 124.081 67.1 123.289 67.532C122.509 67.952 121.645 68.162 120.697 68.162ZM120.697 66.38C121.225 66.38 121.717 66.254 122.173 66.002C122.641 65.75 123.019 65.372 123.307 64.868C123.595 64.364 123.739 63.752 123.739 63.032C123.739 62.312 123.601 61.706 123.325 61.214C123.049 60.71 122.683 60.332 122.227 60.08C121.771 59.828 121.279 59.702 120.751 59.702C120.223 59.702 119.731 59.828 119.275 60.08C118.831 60.332 118.477 60.71 118.213 61.214C117.949 61.706 117.817 62.312 117.817 63.032C117.817 64.1 118.087 64.928 118.627 65.516C119.179 66.092 119.869 66.38 120.697 66.38ZM136.801 58.082L130.717 72.662H128.593L130.609 67.838L126.703 58.082H128.989L131.779 65.642L134.677 58.082H136.801ZM147.44 62.798C147.44 63.17 147.416 63.506 147.368 63.806H139.79C139.85 64.598 140.144 65.234 140.672 65.714C141.2 66.194 141.848 66.434 142.616 66.434C143.72 66.434 144.5 65.972 144.956 65.048H147.17C146.87 65.96 146.324 66.71 145.532 67.298C144.752 67.874 143.78 68.162 142.616 68.162C141.668 68.162 140.816 67.952 140.06 67.532C139.316 67.1 138.728 66.5 138.296 65.732C137.876 64.952 137.666 64.052 137.666 63.032C137.666 62.012 137.87 61.118 138.278 60.35C138.698 59.57 139.28 58.97 140.024 58.55C140.78 58.13 141.644 57.92 142.616 57.92C143.552 57.92 144.386 58.124 145.118 58.532C145.85 58.94 146.42 59.516 146.828 60.26C147.236 60.992 147.44 61.838 147.44 62.798ZM145.298 62.15C145.286 61.394 145.016 60.788 144.488 60.332C143.96 59.876 143.306 59.648 142.526 59.648C141.818 59.648 141.212 59.876 140.708 60.332C140.204 60.776 139.904 61.382 139.808 62.15H145.298ZM158.549 62.798C158.549 63.17 158.525 63.506 158.477 63.806H150.899C150.959 64.598 151.253 65.234 151.781 65.714C152.309 66.194 152.957 66.434 153.725 66.434C154.829 66.434 155.609 65.972 156.065 65.048H158.279C157.979 65.96 157.433 66.71 156.641 67.298C155.861 67.874 154.889 68.162 153.725 68.162C152.777 68.162 151.925 67.952 151.169 67.532C150.425 67.1 149.837 66.5 149.405 65.732C148.985 64.952 148.775 64.052 148.775 63.032C148.775 62.012 148.979 61.118 149.387 60.35C149.807 59.57 150.389 58.97 151.133 58.55C151.889 58.13 152.753 57.92 153.725 57.92C154.661 57.92 155.495 58.124 156.227 58.532C156.959 58.94 157.529 59.516 157.937 60.26C158.345 60.992 158.549 61.838 158.549 62.798ZM156.407 62.15C156.395 61.394 156.125 60.788 155.597 60.332C155.069 59.876 154.415 59.648 153.635 59.648C152.927 59.648 152.321 59.876 151.817 60.332C151.313 60.776 151.013 61.382 150.917 62.15H156.407ZM164.169 68.162C163.389 68.162 162.687 68.024 162.063 67.748C161.451 67.46 160.965 67.076 160.605 66.596C160.245 66.104 160.053 65.558 160.029 64.958H162.153C162.189 65.378 162.387 65.732 162.747 66.02C163.119 66.296 163.581 66.434 164.133 66.434C164.709 66.434 165.153 66.326 165.465 66.11C165.789 65.882 165.951 65.594 165.951 65.246C165.951 64.874 165.771 64.598 165.411 64.418C165.063 64.238 164.505 64.04 163.737 63.824C162.993 63.62 162.387 63.422 161.919 63.23C161.451 63.038 161.043 62.744 160.695 62.348C160.359 61.952 160.191 61.43 160.191 60.782C160.191 60.254 160.347 59.774 160.659 59.342C160.971 58.898 161.415 58.55 161.991 58.298C162.579 58.046 163.251 57.92 164.007 57.92C165.135 57.92 166.041 58.208 166.725 58.784C167.421 59.348 167.793 60.122 167.841 61.106H165.789C165.753 60.662 165.573 60.308 165.249 60.044C164.925 59.78 164.487 59.648 163.935 59.648C163.395 59.648 162.981 59.75 162.693 59.954C162.405 60.158 162.261 60.428 162.261 60.764C162.261 61.028 162.357 61.25 162.549 61.43C162.741 61.61 162.975 61.754 163.251 61.862C163.527 61.958 163.935 62.084 164.475 62.24C165.195 62.432 165.783 62.63 166.239 62.834C166.707 63.026 167.109 63.314 167.445 63.698C167.781 64.082 167.955 64.592 167.967 65.228C167.967 65.792 167.811 66.296 167.499 66.74C167.187 67.184 166.743 67.532 166.167 67.784C165.603 68.036 164.937 68.162 164.169 68.162Z" fill="#221F26"/>
<path d="M25.904 121.56C28.976 118.904 31.392 116.728 33.152 115.032C34.944 113.304 36.432 111.512 37.616 109.656C38.8 107.8 39.392 105.944 39.392 104.088C39.392 102.168 38.928 100.664 38 99.576C37.104 98.488 35.68 97.944 33.728 97.944C31.84 97.944 30.368 98.552 29.312 99.768C28.288 100.952 27.744 102.552 27.68 104.568H22.4C22.496 100.92 23.584 98.136 25.664 96.216C27.776 94.264 30.448 93.288 33.68 93.288C37.168 93.288 39.888 94.248 41.84 96.168C43.824 98.088 44.816 100.648 44.816 103.848C44.816 106.152 44.224 108.376 43.04 110.52C41.888 112.632 40.496 114.536 38.864 116.232C37.264 117.896 35.216 119.832 32.72 122.04L30.56 123.96H45.776V128.52H22.448V124.536L25.904 121.56ZM49.8631 99V94.008H59.8471V129H54.3271V99H49.8631ZM86.1804 102.12C85.8284 100.648 85.1884 99.544 84.2604 98.808C83.3324 98.072 82.0364 97.704 80.3724 97.704C77.8444 97.704 75.9564 98.68 74.7084 100.632C73.4604 102.552 72.8044 105.752 72.7404 110.232C73.5724 108.824 74.7884 107.736 76.3884 106.968C77.9884 106.2 79.7164 105.816 81.5724 105.816C83.6844 105.816 85.5404 106.28 87.1404 107.208C88.7724 108.104 90.0364 109.416 90.9324 111.144C91.8604 112.872 92.3244 114.936 92.3244 117.336C92.3244 119.576 91.8764 121.576 90.9804 123.336C90.1164 125.096 88.8204 126.488 87.0924 127.512C85.3644 128.504 83.2844 129 80.8524 129C77.5564 129 74.9644 128.28 73.0764 126.84C71.2204 125.368 69.9084 123.304 69.1404 120.648C68.4044 117.992 68.0364 114.68 68.0364 110.712C68.0364 99 72.1644 93.144 80.4204 93.144C83.6204 93.144 86.1324 94.008 87.9564 95.736C89.8124 97.464 90.9004 99.592 91.2204 102.12H86.1804ZM80.3724 110.424C78.4204 110.424 76.7564 111.016 75.3804 112.2C74.0364 113.352 73.3644 115.032 73.3644 117.24C73.3644 119.448 73.9884 121.208 75.2364 122.52C76.5164 123.8 78.2924 124.44 80.5644 124.44C82.5804 124.44 84.1644 123.816 85.3164 122.568C86.5004 121.32 87.0924 119.656 87.0924 117.576C87.0924 115.4 86.5164 113.672 85.3644 112.392C84.2444 111.08 82.5804 110.424 80.3724 110.424Z" fill="#221F26"/>
<path d="M24.2715 162.422V171H23.1875V163.775L21.002 164.572V163.594L24.1016 162.422H24.2715ZM33.0488 170.109V171H27.4648V170.221L30.2598 167.109C30.6035 166.727 30.8691 166.402 31.0566 166.137C31.248 165.867 31.3809 165.627 31.4551 165.416C31.5332 165.201 31.5723 164.982 31.5723 164.76C31.5723 164.479 31.5137 164.225 31.3965 163.998C31.2832 163.768 31.1152 163.584 30.8926 163.447C30.6699 163.311 30.4004 163.242 30.084 163.242C29.7051 163.242 29.3887 163.316 29.1348 163.465C28.8848 163.609 28.6973 163.812 28.5723 164.074C28.4473 164.336 28.3848 164.637 28.3848 164.977H27.3008C27.3008 164.496 27.4062 164.057 27.6172 163.658C27.8281 163.26 28.1406 162.943 28.5547 162.709C28.9688 162.471 29.4785 162.352 30.084 162.352C30.623 162.352 31.084 162.447 31.4668 162.639C31.8496 162.826 32.1426 163.092 32.3457 163.436C32.5527 163.775 32.6562 164.174 32.6562 164.631C32.6562 164.881 32.6133 165.135 32.5273 165.393C32.4453 165.646 32.3301 165.9 32.1816 166.154C32.0371 166.408 31.8672 166.658 31.6719 166.904C31.4805 167.15 31.2754 167.393 31.0566 167.631L28.7715 170.109H33.0488ZM39.5645 166.055V167.355C39.5645 168.055 39.502 168.645 39.377 169.125C39.252 169.605 39.0723 169.992 38.8379 170.285C38.6035 170.578 38.3203 170.791 37.9883 170.924C37.6602 171.053 37.2891 171.117 36.875 171.117C36.5469 171.117 36.2441 171.076 35.9668 170.994C35.6895 170.912 35.4395 170.781 35.2168 170.602C34.998 170.418 34.8105 170.18 34.6543 169.887C34.498 169.594 34.3789 169.238 34.2969 168.82C34.2148 168.402 34.1738 167.914 34.1738 167.355V166.055C34.1738 165.355 34.2363 164.77 34.3613 164.297C34.4902 163.824 34.6719 163.445 34.9062 163.16C35.1406 162.871 35.4219 162.664 35.75 162.539C36.082 162.414 36.4531 162.352 36.8633 162.352C37.1953 162.352 37.5 162.393 37.7773 162.475C38.0586 162.553 38.3086 162.68 38.5273 162.855C38.7461 163.027 38.9316 163.258 39.084 163.547C39.2402 163.832 39.3594 164.182 39.4414 164.596C39.5234 165.01 39.5645 165.496 39.5645 166.055ZM38.4746 167.531V165.873C38.4746 165.49 38.4512 165.154 38.4043 164.865C38.3613 164.572 38.2969 164.322 38.2109 164.115C38.125 163.908 38.0156 163.74 37.8828 163.611C37.7539 163.482 37.6035 163.389 37.4316 163.33C37.2637 163.268 37.0742 163.236 36.8633 163.236C36.6055 163.236 36.377 163.285 36.1777 163.383C35.9785 163.477 35.8105 163.627 35.6738 163.834C35.541 164.041 35.4395 164.312 35.3691 164.648C35.2988 164.984 35.2637 165.393 35.2637 165.873V167.531C35.2637 167.914 35.2852 168.252 35.3281 168.545C35.375 168.838 35.4434 169.092 35.5332 169.307C35.623 169.518 35.7324 169.691 35.8613 169.828C35.9902 169.965 36.1387 170.066 36.3066 170.133C36.4785 170.195 36.668 170.227 36.875 170.227C37.1406 170.227 37.373 170.176 37.5723 170.074C37.7715 169.973 37.9375 169.814 38.0703 169.6C38.207 169.381 38.3086 169.102 38.375 168.762C38.4414 168.418 38.4746 168.008 38.4746 167.531ZM44.5742 162.469H45.6699L48.4648 169.424L51.2539 162.469H52.3555L48.8867 171H48.0312L44.5742 162.469ZM44.2168 162.469H45.1836L45.3418 167.672V171H44.2168V162.469ZM51.7402 162.469H52.707V171H51.582V167.672L51.7402 162.469ZM57.1602 171.117C56.7188 171.117 56.3184 171.043 55.959 170.895C55.6035 170.742 55.2969 170.529 55.0391 170.256C54.7852 169.982 54.5898 169.658 54.4531 169.283C54.3164 168.908 54.248 168.498 54.248 168.053V167.807C54.248 167.291 54.3242 166.832 54.4766 166.43C54.6289 166.023 54.8359 165.68 55.0977 165.398C55.3594 165.117 55.6562 164.904 55.9883 164.76C56.3203 164.615 56.6641 164.543 57.0195 164.543C57.4727 164.543 57.8633 164.621 58.1914 164.777C58.5234 164.934 58.7949 165.152 59.0059 165.434C59.2168 165.711 59.373 166.039 59.4746 166.418C59.5762 166.793 59.627 167.203 59.627 167.648V168.135H54.8926V167.25H58.543V167.168C58.5273 166.887 58.4688 166.613 58.3672 166.348C58.2695 166.082 58.1133 165.863 57.8984 165.691C57.6836 165.52 57.3906 165.434 57.0195 165.434C56.7734 165.434 56.5469 165.486 56.3398 165.592C56.1328 165.693 55.9551 165.846 55.8066 166.049C55.6582 166.252 55.543 166.5 55.4609 166.793C55.3789 167.086 55.3379 167.424 55.3379 167.807V168.053C55.3379 168.354 55.3789 168.637 55.4609 168.902C55.5469 169.164 55.6699 169.395 55.8301 169.594C55.9941 169.793 56.1914 169.949 56.4219 170.062C56.6562 170.176 56.9219 170.232 57.2188 170.232C57.6016 170.232 57.9258 170.154 58.1914 169.998C58.457 169.842 58.6895 169.633 58.8887 169.371L59.5449 169.893C59.4082 170.1 59.2344 170.297 59.0234 170.484C58.8125 170.672 58.5527 170.824 58.2441 170.941C57.9395 171.059 57.5781 171.117 57.1602 171.117ZM61.9766 166.014V171H60.8926V164.66H61.918L61.9766 166.014ZM61.7188 167.59L61.2676 167.572C61.2715 167.139 61.3359 166.738 61.4609 166.371C61.5859 166 61.7617 165.678 61.9883 165.404C62.2148 165.131 62.4844 164.92 62.7969 164.771C63.1133 164.619 63.4629 164.543 63.8457 164.543C64.1582 164.543 64.4395 164.586 64.6895 164.672C64.9395 164.754 65.1523 164.887 65.3281 165.07C65.5078 165.254 65.6445 165.492 65.7383 165.785C65.832 166.074 65.8789 166.428 65.8789 166.846V171H64.7891V166.834C64.7891 166.502 64.7402 166.236 64.6426 166.037C64.5449 165.834 64.4023 165.688 64.2148 165.598C64.0273 165.504 63.7969 165.457 63.5234 165.457C63.2539 165.457 63.0078 165.514 62.7852 165.627C62.5664 165.74 62.377 165.896 62.2168 166.096C62.0605 166.295 61.9375 166.523 61.8477 166.781C61.7617 167.035 61.7188 167.305 61.7188 167.59Z" fill="#6A696E"/>
<path d="M21.7871 192.092H21.8984C22.5234 192.092 23.0312 192.004 23.4219 191.828C23.8125 191.652 24.1133 191.416 24.3242 191.119C24.5352 190.822 24.6797 190.488 24.7578 190.117C24.8359 189.742 24.875 189.357 24.875 188.963V187.656C24.875 187.27 24.8301 186.926 24.7402 186.625C24.6543 186.324 24.5332 186.072 24.377 185.869C24.2246 185.666 24.0508 185.512 23.8555 185.406C23.6602 185.301 23.4531 185.248 23.2344 185.248C22.9844 185.248 22.7598 185.299 22.5605 185.4C22.3652 185.498 22.1992 185.637 22.0625 185.816C21.9297 185.996 21.8281 186.207 21.7578 186.449C21.6875 186.691 21.6523 186.955 21.6523 187.24C21.6523 187.494 21.6836 187.74 21.7461 187.979C21.8086 188.217 21.9043 188.432 22.0332 188.623C22.1621 188.814 22.3223 188.967 22.5137 189.08C22.709 189.189 22.9375 189.244 23.1992 189.244C23.4414 189.244 23.668 189.197 23.8789 189.104C24.0938 189.006 24.2832 188.875 24.4473 188.711C24.6152 188.543 24.748 188.354 24.8457 188.143C24.9473 187.932 25.0059 187.711 25.0215 187.48H25.5371C25.5371 187.805 25.4727 188.125 25.3438 188.441C25.2188 188.754 25.043 189.039 24.8164 189.297C24.5898 189.555 24.3242 189.762 24.0195 189.918C23.7148 190.07 23.3828 190.146 23.0234 190.146C22.6016 190.146 22.2363 190.064 21.9277 189.9C21.6191 189.736 21.3652 189.518 21.166 189.244C20.9707 188.971 20.8242 188.666 20.7266 188.33C20.6328 187.99 20.5859 187.646 20.5859 187.299C20.5859 186.893 20.6426 186.512 20.7559 186.156C20.8691 185.801 21.0371 185.488 21.2598 185.219C21.4824 184.945 21.7578 184.732 22.0859 184.58C22.418 184.428 22.8008 184.352 23.2344 184.352C23.7227 184.352 24.1387 184.449 24.4824 184.645C24.8262 184.84 25.1055 185.102 25.3203 185.43C25.5391 185.758 25.6992 186.127 25.8008 186.537C25.9023 186.947 25.9531 187.369 25.9531 187.803V188.195C25.9531 188.637 25.9238 189.086 25.8652 189.543C25.8105 189.996 25.7031 190.43 25.543 190.844C25.3867 191.258 25.1582 191.629 24.8574 191.957C24.5566 192.281 24.1641 192.539 23.6797 192.73C23.1992 192.918 22.6055 193.012 21.8984 193.012H21.7871V192.092ZM31.6191 184.457H31.7129V185.377H31.6191C31.0449 185.377 30.5645 185.471 30.1777 185.658C29.791 185.842 29.4844 186.09 29.2578 186.402C29.0312 186.711 28.8672 187.059 28.7656 187.445C28.668 187.832 28.6191 188.225 28.6191 188.623V189.877C28.6191 190.256 28.6641 190.592 28.7539 190.885C28.8438 191.174 28.9668 191.418 29.123 191.617C29.2793 191.816 29.4551 191.967 29.6504 192.068C29.8496 192.17 30.0566 192.221 30.2715 192.221C30.5215 192.221 30.7441 192.174 30.9395 192.08C31.1348 191.982 31.2988 191.848 31.4316 191.676C31.5684 191.5 31.6719 191.293 31.7422 191.055C31.8125 190.816 31.8477 190.555 31.8477 190.27C31.8477 190.016 31.8164 189.771 31.7539 189.537C31.6914 189.299 31.5957 189.088 31.4668 188.904C31.3379 188.717 31.1758 188.57 30.9805 188.465C30.7891 188.355 30.5605 188.301 30.2949 188.301C29.9941 188.301 29.7129 188.375 29.4512 188.523C29.1934 188.668 28.9805 188.859 28.8125 189.098C28.6484 189.332 28.5547 189.588 28.5312 189.865L27.957 189.859C28.0117 189.422 28.1133 189.049 28.2617 188.74C28.4141 188.428 28.6016 188.174 28.8242 187.979C29.0508 187.779 29.3027 187.635 29.5801 187.545C29.8613 187.451 30.1582 187.404 30.4707 187.404C30.8965 187.404 31.2637 187.484 31.5723 187.645C31.8809 187.805 32.1348 188.02 32.334 188.289C32.5332 188.555 32.6797 188.855 32.7734 189.191C32.8711 189.523 32.9199 189.865 32.9199 190.217C32.9199 190.619 32.8633 190.996 32.75 191.348C32.6367 191.699 32.4668 192.008 32.2402 192.273C32.0176 192.539 31.7422 192.746 31.4141 192.895C31.0859 193.043 30.7051 193.117 30.2715 193.117C29.8105 193.117 29.4082 193.023 29.0645 192.836C28.7207 192.645 28.4355 192.391 28.209 192.074C27.9824 191.758 27.8125 191.406 27.6992 191.02C27.5859 190.633 27.5293 190.24 27.5293 189.842V189.332C27.5293 188.73 27.5898 188.141 27.7109 187.562C27.832 186.984 28.041 186.461 28.3379 185.992C28.6387 185.523 29.0547 185.15 29.5859 184.873C30.1172 184.596 30.7949 184.457 31.6191 184.457ZM39.7109 190.422L41.4043 184.469H42.2246L41.75 186.783L39.9277 193H39.1133L39.7109 190.422ZM37.959 184.469L39.3066 190.305L39.7109 193H38.9023L36.834 184.469H37.959ZM44.416 190.299L45.7344 184.469H46.8652L44.8027 193H43.9941L44.416 190.299ZM42.3477 184.469L43.9941 190.422L44.5918 193H43.7773L42.0195 186.783L41.5391 184.469H42.3477ZM47.4805 189.9V189.766C47.4805 189.309 47.5469 188.885 47.6797 188.494C47.8125 188.1 48.0039 187.758 48.2539 187.469C48.5039 187.176 48.8066 186.949 49.1621 186.789C49.5176 186.625 49.916 186.543 50.3574 186.543C50.8027 186.543 51.2031 186.625 51.5586 186.789C51.918 186.949 52.2227 187.176 52.4727 187.469C52.7266 187.758 52.9199 188.1 53.0527 188.494C53.1855 188.885 53.252 189.309 53.252 189.766V189.9C53.252 190.357 53.1855 190.781 53.0527 191.172C52.9199 191.562 52.7266 191.904 52.4727 192.197C52.2227 192.486 51.9199 192.713 51.5645 192.877C51.2129 193.037 50.8145 193.117 50.3691 193.117C49.9238 193.117 49.5234 193.037 49.168 192.877C48.8125 192.713 48.5078 192.486 48.2539 192.197C48.0039 191.904 47.8125 191.562 47.6797 191.172C47.5469 190.781 47.4805 190.357 47.4805 189.9ZM48.5645 189.766V189.9C48.5645 190.217 48.6016 190.516 48.6758 190.797C48.75 191.074 48.8613 191.32 49.0098 191.535C49.1621 191.75 49.3516 191.92 49.5781 192.045C49.8047 192.166 50.0684 192.227 50.3691 192.227C50.666 192.227 50.9258 192.166 51.1484 192.045C51.375 191.92 51.5625 191.75 51.7109 191.535C51.8594 191.32 51.9707 191.074 52.0449 190.797C52.123 190.516 52.1621 190.217 52.1621 189.9V189.766C52.1621 189.453 52.123 189.158 52.0449 188.881C51.9707 188.6 51.8574 188.352 51.7051 188.137C51.5566 187.918 51.3691 187.746 51.1426 187.621C50.9199 187.496 50.6582 187.434 50.3574 187.434C50.0605 187.434 49.7988 187.496 49.5723 187.621C49.3496 187.746 49.1621 187.918 49.0098 188.137C48.8613 188.352 48.75 188.6 48.6758 188.881C48.6016 189.158 48.5645 189.453 48.5645 189.766ZM55.6895 187.92V193H54.5996V186.66H55.6309L55.6895 187.92ZM55.4668 189.59L54.9629 189.572C54.9668 189.139 55.0234 188.738 55.1328 188.371C55.2422 188 55.4043 187.678 55.6191 187.404C55.834 187.131 56.1016 186.92 56.4219 186.771C56.7422 186.619 57.1133 186.543 57.5352 186.543C57.832 186.543 58.1055 186.586 58.3555 186.672C58.6055 186.754 58.8223 186.885 59.0059 187.064C59.1895 187.244 59.332 187.475 59.4336 187.756C59.5352 188.037 59.5859 188.377 59.5859 188.775V193H58.502V188.828C58.502 188.496 58.4453 188.23 58.332 188.031C58.2227 187.832 58.0664 187.688 57.8633 187.598C57.6602 187.504 57.4219 187.457 57.1484 187.457C56.8281 187.457 56.5605 187.514 56.3457 187.627C56.1309 187.74 55.959 187.896 55.8301 188.096C55.7012 188.295 55.6074 188.523 55.5488 188.781C55.4941 189.035 55.4668 189.305 55.4668 189.59ZM59.5742 188.992L58.8477 189.215C58.8516 188.867 58.9082 188.533 59.0176 188.213C59.1309 187.893 59.293 187.607 59.5039 187.357C59.7188 187.107 59.9824 186.91 60.2949 186.766C60.6074 186.617 60.9648 186.543 61.3672 186.543C61.707 186.543 62.0078 186.588 62.2695 186.678C62.5352 186.768 62.7578 186.906 62.9375 187.094C63.1211 187.277 63.2598 187.514 63.3535 187.803C63.4473 188.092 63.4941 188.436 63.4941 188.834V193H62.4043V188.822C62.4043 188.467 62.3477 188.191 62.2344 187.996C62.125 187.797 61.9688 187.658 61.7656 187.58C61.5664 187.498 61.3281 187.457 61.0508 187.457C60.8125 187.457 60.6016 187.498 60.418 187.58C60.2344 187.662 60.0801 187.775 59.9551 187.92C59.8301 188.061 59.7344 188.223 59.668 188.406C59.6055 188.59 59.5742 188.785 59.5742 188.992ZM67.7656 193.117C67.3242 193.117 66.9238 193.043 66.5645 192.895C66.209 192.742 65.9023 192.529 65.6445 192.256C65.3906 191.982 65.1953 191.658 65.0586 191.283C64.9219 190.908 64.8535 190.498 64.8535 190.053V189.807C64.8535 189.291 64.9297 188.832 65.082 188.43C65.2344 188.023 65.4414 187.68 65.7031 187.398C65.9648 187.117 66.2617 186.904 66.5938 186.76C66.9258 186.615 67.2695 186.543 67.625 186.543C68.0781 186.543 68.4688 186.621 68.7969 186.777C69.1289 186.934 69.4004 187.152 69.6113 187.434C69.8223 187.711 69.9785 188.039 70.0801 188.418C70.1816 188.793 70.2324 189.203 70.2324 189.648V190.135H65.498V189.25H69.1484V189.168C69.1328 188.887 69.0742 188.613 68.9727 188.348C68.875 188.082 68.7188 187.863 68.5039 187.691C68.2891 187.52 67.9961 187.434 67.625 187.434C67.3789 187.434 67.1523 187.486 66.9453 187.592C66.7383 187.693 66.5605 187.846 66.4121 188.049C66.2637 188.252 66.1484 188.5 66.0664 188.793C65.9844 189.086 65.9434 189.424 65.9434 189.807V190.053C65.9434 190.354 65.9844 190.637 66.0664 190.902C66.1523 191.164 66.2754 191.395 66.4355 191.594C66.5996 191.793 66.7969 191.949 67.0273 192.062C67.2617 192.176 67.5273 192.232 67.8242 192.232C68.207 192.232 68.5312 192.154 68.7969 191.998C69.0625 191.842 69.2949 191.633 69.4941 191.371L70.1504 191.893C70.0137 192.1 69.8398 192.297 69.6289 192.484C69.418 192.672 69.1582 192.824 68.8496 192.941C68.5449 193.059 68.1836 193.117 67.7656 193.117ZM72.582 188.014V193H71.498V186.66H72.5234L72.582 188.014ZM72.3242 189.59L71.873 189.572C71.877 189.139 71.9414 188.738 72.0664 188.371C72.1914 188 72.3672 187.678 72.5938 187.404C72.8203 187.131 73.0898 186.92 73.4023 186.771C73.7188 186.619 74.0684 186.543 74.4512 186.543C74.7637 186.543 75.0449 186.586 75.2949 186.672C75.5449 186.754 75.7578 186.887 75.9336 187.07C76.1133 187.254 76.25 187.492 76.3438 187.785C76.4375 188.074 76.4844 188.428 76.4844 188.846V193H75.3945V188.834C75.3945 188.502 75.3457 188.236 75.248 188.037C75.1504 187.834 75.0078 187.688 74.8203 187.598C74.6328 187.504 74.4023 187.457 74.1289 187.457C73.8594 187.457 73.6133 187.514 73.3906 187.627C73.1719 187.74 72.9824 187.896 72.8223 188.096C72.666 188.295 72.543 188.523 72.4531 188.781C72.3672 189.035 72.3242 189.305 72.3242 189.59Z" fill="#6A696E"/>
<path d="M177 113.5C177 113.5 192.282 95.2086 206 92.5C216.431 90.4403 222.488 97.5924 233 96C249.278 93.5342 252.396 75.9209 268.5 72.5C277.477 70.5931 291.5 72.5 291.5 72.5" stroke="#1A60FE" stroke-width="2" stroke-linecap="round"/>
<path d="M206.5 92.3475C192.782 95.0562 177.5 113.347 177.5 113.347V140.5H292V72.3475C292 72.3475 277.977 70.4406 269 72.3475C252.896 75.7685 249.778 93.3817 233.5 95.8475C222.988 97.4399 216.931 90.2878 206.5 92.3475Z" fill="url(#paint0_linear_2015_23)"/>
<path d="M222.28 71.17C222.213 71.17 222.157 71.1467 222.11 71.1C222.063 71.0533 222.04 70.9967 222.04 70.93V68.98H220.12C220.053 68.98 219.997 68.9567 219.95 68.91C219.903 68.8633 219.88 68.8067 219.88 68.74V68.21C219.88 68.1367 219.903 68.08 219.95 68.04C219.997 67.9933 220.053 67.97 220.12 67.97H222.04V66.07C222.04 66.0033 222.063 65.9467 222.11 65.9C222.157 65.8533 222.213 65.83 222.28 65.83H222.86C222.933 65.83 222.99 65.8533 223.03 65.9C223.077 65.9467 223.1 66.0033 223.1 66.07V67.97H225.02C225.087 67.97 225.143 67.9933 225.19 68.04C225.237 68.08 225.26 68.1367 225.26 68.21V68.74C225.26 68.8067 225.237 68.8633 225.19 68.91C225.143 68.9567 225.087 68.98 225.02 68.98H223.1V70.93C223.1 70.9967 223.077 71.0533 223.03 71.1C222.99 71.1467 222.933 71.17 222.86 71.17H222.28ZM226.108 71.5C226.041 71.5 225.985 71.4767 225.938 71.43C225.891 71.3833 225.868 71.3267 225.868 71.26V70.75C225.868 70.69 225.881 70.62 225.908 70.54C225.941 70.4533 226.011 70.3667 226.118 70.28L227.698 68.71C228.138 68.3633 228.491 68.07 228.758 67.83C229.031 67.5833 229.228 67.36 229.348 67.16C229.475 66.9533 229.538 66.75 229.538 66.55C229.538 66.25 229.455 66.0067 229.288 65.82C229.128 65.6333 228.871 65.54 228.518 65.54C228.285 65.54 228.088 65.59 227.928 65.69C227.768 65.7833 227.641 65.91 227.548 66.07C227.461 66.23 227.401 66.4067 227.368 66.6C227.355 66.6867 227.318 66.7467 227.258 66.78C227.198 66.8133 227.138 66.83 227.078 66.83H226.188C226.128 66.83 226.078 66.81 226.038 66.77C225.998 66.73 225.978 66.6833 225.978 66.63C225.985 66.3433 226.045 66.0667 226.158 65.8C226.271 65.5267 226.435 65.2867 226.648 65.08C226.868 64.8667 227.135 64.6967 227.448 64.57C227.761 64.4433 228.115 64.38 228.508 64.38C229.061 64.38 229.518 64.4733 229.878 64.66C230.245 64.8467 230.518 65.1 230.698 65.42C230.885 65.74 230.978 66.1 230.978 66.5C230.978 66.8133 230.918 67.1033 230.798 67.37C230.678 67.63 230.505 67.8833 230.278 68.13C230.051 68.37 229.778 68.6167 229.458 68.87L228.038 70.31H230.888C230.961 70.31 231.018 70.3333 231.058 70.38C231.105 70.42 231.128 70.4767 231.128 70.55V71.26C231.128 71.3267 231.105 71.3833 231.058 71.43C231.018 71.4767 230.961 71.5 230.888 71.5H226.108ZM232.709 71.5C232.569 71.5 232.499 71.4333 232.499 71.3C232.499 71.26 232.513 71.2233 232.539 71.19L237.469 64.69C237.516 64.63 237.563 64.5833 237.609 64.55C237.656 64.5167 237.723 64.5 237.809 64.5H238.339C238.479 64.5 238.549 64.5667 238.549 64.7C238.549 64.74 238.536 64.7767 238.509 64.81L233.579 71.31C233.533 71.37 233.486 71.4167 233.439 71.45C233.399 71.4833 233.333 71.5 233.239 71.5H232.709ZM237.519 71.56C237.073 71.56 236.719 71.4367 236.459 71.19C236.199 70.9433 236.056 70.62 236.029 70.22C236.023 70.0467 236.019 69.8967 236.019 69.77C236.019 69.6433 236.023 69.4867 236.029 69.3C236.056 68.9 236.193 68.5767 236.439 68.33C236.693 68.0833 237.053 67.96 237.519 67.96C237.993 67.96 238.353 68.0833 238.599 68.33C238.853 68.5767 238.989 68.9 239.009 69.3C239.023 69.4867 239.029 69.6433 239.029 69.77C239.029 69.8967 239.023 70.0467 239.009 70.22C238.989 70.62 238.846 70.9433 238.579 71.19C238.319 71.4367 237.966 71.56 237.519 71.56ZM237.519 70.78C237.666 70.78 237.779 70.75 237.859 70.69C237.946 70.63 238.009 70.5533 238.049 70.46C238.089 70.3667 238.109 70.2733 238.109 70.18C238.123 70.0133 238.129 69.8733 238.129 69.76C238.129 69.64 238.123 69.5033 238.109 69.35C238.103 69.1967 238.056 69.0567 237.969 68.93C237.883 68.7967 237.733 68.73 237.519 68.73C237.313 68.73 237.166 68.7967 237.079 68.93C236.993 69.0567 236.943 69.1967 236.929 69.35C236.923 69.5033 236.919 69.64 236.919 69.76C236.919 69.8733 236.923 70.0133 236.929 70.18C236.943 70.2733 236.966 70.3667 236.999 70.46C237.039 70.5533 237.099 70.63 237.179 70.69C237.266 70.75 237.379 70.78 237.519 70.78ZM233.529 68.02C233.083 68.02 232.729 67.9033 232.469 67.67C232.209 67.4367 232.066 67.12 232.039 66.72C232.033 66.5467 232.029 66.3967 232.029 66.27C232.029 66.1367 232.033 65.9767 232.039 65.79C232.066 65.39 232.203 65.0667 232.449 64.82C232.703 64.5733 233.063 64.45 233.529 64.45C234.003 64.45 234.363 64.5733 234.609 64.82C234.863 65.0667 234.999 65.39 235.019 65.79C235.033 65.9767 235.039 66.1367 235.039 66.27C235.039 66.3967 235.033 66.5467 235.019 66.72C234.999 67.12 234.856 67.4367 234.589 67.67C234.329 67.9033 233.976 68.02 233.529 68.02ZM233.529 67.28C233.676 67.28 233.789 67.25 233.869 67.19C233.956 67.13 234.019 67.0533 234.059 66.96C234.099 66.8667 234.119 66.77 234.119 66.67C234.133 66.5033 234.139 66.3633 234.139 66.25C234.139 66.13 234.133 65.9933 234.119 65.84C234.113 65.6867 234.066 65.5467 233.979 65.42C233.893 65.2933 233.743 65.23 233.529 65.23C233.323 65.23 233.176 65.2933 233.089 65.42C233.003 65.5467 232.956 65.6867 232.949 65.84C232.943 65.9933 232.939 66.13 232.939 66.25C232.939 66.3633 232.943 66.5033 232.949 66.67C232.956 66.77 232.976 66.8667 233.009 66.96C233.049 67.0533 233.109 67.13 233.189 67.19C233.276 67.25 233.389 67.28 233.529 67.28Z" fill="#1A60FE"/>
<path d="M228.5 79.5L230.5 77.5M230.5 77.5L232.5 79.5M230.5 77.5V84.5" stroke="#1A60FE" stroke-linecap="round" stroke-linejoin="round"/>
<rect x="185" y="160.5" width="107" height="24" rx="4" fill="#F4EDE5"/>
<path d="M201.305 171.924V172.943H195.457V171.924H201.305ZM198.926 169.434V175.645H197.842V169.434H198.926ZM208.107 175.609V176.5H202.523V175.721L205.318 172.609C205.662 172.227 205.928 171.902 206.115 171.637C206.307 171.367 206.439 171.127 206.514 170.916C206.592 170.701 206.631 170.482 206.631 170.26C206.631 169.979 206.572 169.725 206.455 169.498C206.342 169.268 206.174 169.084 205.951 168.947C205.729 168.811 205.459 168.742 205.143 168.742C204.764 168.742 204.447 168.816 204.193 168.965C203.943 169.109 203.756 169.312 203.631 169.574C203.506 169.836 203.443 170.137 203.443 170.477H202.359C202.359 169.996 202.465 169.557 202.676 169.158C202.887 168.76 203.199 168.443 203.613 168.209C204.027 167.971 204.537 167.852 205.143 167.852C205.682 167.852 206.143 167.947 206.525 168.139C206.908 168.326 207.201 168.592 207.404 168.936C207.611 169.275 207.715 169.674 207.715 170.131C207.715 170.381 207.672 170.635 207.586 170.893C207.504 171.146 207.389 171.4 207.24 171.654C207.096 171.908 206.926 172.158 206.73 172.404C206.539 172.65 206.334 172.893 206.115 173.131L203.83 175.609H208.107ZM209.174 170.061V169.609C209.174 169.285 209.244 168.99 209.385 168.725C209.525 168.459 209.727 168.246 209.988 168.086C210.25 167.926 210.561 167.846 210.92 167.846C211.287 167.846 211.6 167.926 211.857 168.086C212.119 168.246 212.32 168.459 212.461 168.725C212.602 168.99 212.672 169.285 212.672 169.609V170.061C212.672 170.377 212.602 170.668 212.461 170.934C212.324 171.199 212.125 171.412 211.863 171.572C211.605 171.732 211.295 171.812 210.932 171.812C210.568 171.812 210.254 171.732 209.988 171.572C209.727 171.412 209.525 171.199 209.385 170.934C209.244 170.668 209.174 170.377 209.174 170.061ZM209.988 169.609V170.061C209.988 170.24 210.021 170.41 210.088 170.57C210.158 170.73 210.264 170.861 210.404 170.963C210.545 171.061 210.721 171.109 210.932 171.109C211.143 171.109 211.316 171.061 211.453 170.963C211.59 170.861 211.691 170.73 211.758 170.57C211.824 170.41 211.857 170.24 211.857 170.061V169.609C211.857 169.426 211.822 169.254 211.752 169.094C211.686 168.93 211.582 168.799 211.441 168.701C211.305 168.6 211.131 168.549 210.92 168.549C210.713 168.549 210.539 168.6 210.398 168.701C210.262 168.799 210.158 168.93 210.088 169.094C210.021 169.254 209.988 169.426 209.988 169.609ZM213.328 174.865V174.408C213.328 174.088 213.398 173.795 213.539 173.529C213.68 173.264 213.881 173.051 214.143 172.891C214.404 172.73 214.715 172.65 215.074 172.65C215.441 172.65 215.754 172.73 216.012 172.891C216.273 173.051 216.475 173.264 216.615 173.529C216.756 173.795 216.826 174.088 216.826 174.408V174.865C216.826 175.186 216.756 175.479 216.615 175.744C216.479 176.01 216.279 176.223 216.018 176.383C215.76 176.543 215.449 176.623 215.086 176.623C214.723 176.623 214.41 176.543 214.148 176.383C213.887 176.223 213.684 176.01 213.539 175.744C213.398 175.479 213.328 175.186 213.328 174.865ZM214.143 174.408V174.865C214.143 175.045 214.176 175.217 214.242 175.381C214.312 175.541 214.418 175.672 214.559 175.773C214.699 175.871 214.875 175.92 215.086 175.92C215.297 175.92 215.471 175.871 215.607 175.773C215.748 175.672 215.852 175.541 215.918 175.381C215.984 175.221 216.018 175.049 216.018 174.865V174.408C216.018 174.225 215.982 174.053 215.912 173.893C215.846 173.732 215.742 173.604 215.602 173.506C215.465 173.404 215.289 173.354 215.074 173.354C214.867 173.354 214.693 173.404 214.553 173.506C214.416 173.604 214.312 173.732 214.242 173.893C214.176 174.053 214.143 174.225 214.143 174.408ZM215.344 169.182L211.178 175.85L210.568 175.463L214.734 168.795L215.344 169.182ZM224.461 173.154H222.182V172.234H224.461C224.902 172.234 225.26 172.164 225.533 172.023C225.807 171.883 226.006 171.688 226.131 171.438C226.26 171.188 226.324 170.902 226.324 170.582C226.324 170.289 226.26 170.014 226.131 169.756C226.006 169.498 225.807 169.291 225.533 169.135C225.26 168.975 224.902 168.895 224.461 168.895H222.445V176.5H221.314V167.969H224.461C225.105 167.969 225.65 168.08 226.096 168.303C226.541 168.525 226.879 168.834 227.109 169.229C227.34 169.619 227.455 170.066 227.455 170.57C227.455 171.117 227.34 171.584 227.109 171.971C226.879 172.357 226.541 172.652 226.096 172.855C225.65 173.055 225.105 173.154 224.461 173.154ZM232.389 175.416V172.152C232.389 171.902 232.338 171.686 232.236 171.502C232.139 171.314 231.99 171.17 231.791 171.068C231.592 170.967 231.346 170.916 231.053 170.916C230.779 170.916 230.539 170.963 230.332 171.057C230.129 171.15 229.969 171.273 229.852 171.426C229.738 171.578 229.682 171.742 229.682 171.918H228.598C228.598 171.691 228.656 171.467 228.773 171.244C228.891 171.021 229.059 170.82 229.277 170.641C229.5 170.457 229.766 170.312 230.074 170.207C230.387 170.098 230.734 170.043 231.117 170.043C231.578 170.043 231.984 170.121 232.336 170.277C232.691 170.434 232.969 170.67 233.168 170.986C233.371 171.299 233.473 171.691 233.473 172.164V175.117C233.473 175.328 233.49 175.553 233.525 175.791C233.564 176.029 233.621 176.234 233.695 176.406V176.5H232.564C232.51 176.375 232.467 176.209 232.436 176.002C232.404 175.791 232.389 175.596 232.389 175.416ZM232.576 172.656L232.588 173.418H231.492C231.184 173.418 230.908 173.443 230.666 173.494C230.424 173.541 230.221 173.613 230.057 173.711C229.893 173.809 229.768 173.932 229.682 174.08C229.596 174.225 229.553 174.395 229.553 174.59C229.553 174.789 229.598 174.971 229.688 175.135C229.777 175.299 229.912 175.43 230.092 175.527C230.275 175.621 230.5 175.668 230.766 175.668C231.098 175.668 231.391 175.598 231.645 175.457C231.898 175.316 232.1 175.145 232.248 174.941C232.4 174.738 232.482 174.541 232.494 174.35L232.957 174.871C232.93 175.035 232.855 175.217 232.734 175.416C232.613 175.615 232.451 175.807 232.248 175.99C232.049 176.17 231.811 176.32 231.533 176.441C231.26 176.559 230.951 176.617 230.607 176.617C230.178 176.617 229.801 176.533 229.477 176.365C229.156 176.197 228.906 175.973 228.727 175.691C228.551 175.406 228.463 175.088 228.463 174.736C228.463 174.396 228.529 174.098 228.662 173.84C228.795 173.578 228.986 173.361 229.236 173.189C229.486 173.014 229.787 172.881 230.139 172.791C230.49 172.701 230.883 172.656 231.316 172.656H232.576ZM238.869 174.818C238.869 174.662 238.834 174.518 238.764 174.385C238.697 174.248 238.559 174.125 238.348 174.016C238.141 173.902 237.828 173.805 237.41 173.723C237.059 173.648 236.74 173.561 236.455 173.459C236.174 173.357 235.934 173.234 235.734 173.09C235.539 172.945 235.389 172.775 235.283 172.58C235.178 172.385 235.125 172.156 235.125 171.895C235.125 171.645 235.18 171.408 235.289 171.186C235.402 170.963 235.561 170.766 235.764 170.594C235.971 170.422 236.219 170.287 236.508 170.189C236.797 170.092 237.119 170.043 237.475 170.043C237.982 170.043 238.416 170.133 238.775 170.312C239.135 170.492 239.41 170.732 239.602 171.033C239.793 171.33 239.889 171.66 239.889 172.023H238.805C238.805 171.848 238.752 171.678 238.646 171.514C238.545 171.346 238.395 171.207 238.195 171.098C238 170.988 237.76 170.934 237.475 170.934C237.174 170.934 236.93 170.98 236.742 171.074C236.559 171.164 236.424 171.279 236.338 171.42C236.256 171.561 236.215 171.709 236.215 171.865C236.215 171.982 236.234 172.088 236.273 172.182C236.316 172.271 236.391 172.355 236.496 172.434C236.602 172.508 236.75 172.578 236.941 172.645C237.133 172.711 237.377 172.777 237.674 172.844C238.193 172.961 238.621 173.102 238.957 173.266C239.293 173.43 239.543 173.631 239.707 173.869C239.871 174.107 239.953 174.396 239.953 174.736C239.953 175.014 239.895 175.268 239.777 175.498C239.664 175.729 239.498 175.928 239.279 176.096C239.064 176.26 238.807 176.389 238.506 176.482C238.209 176.572 237.875 176.617 237.504 176.617C236.945 176.617 236.473 176.518 236.086 176.318C235.699 176.119 235.406 175.861 235.207 175.545C235.008 175.229 234.908 174.895 234.908 174.543H235.998C236.014 174.84 236.1 175.076 236.256 175.252C236.412 175.424 236.604 175.547 236.83 175.621C237.057 175.691 237.281 175.727 237.504 175.727C237.801 175.727 238.049 175.688 238.248 175.609C238.451 175.531 238.605 175.424 238.711 175.287C238.816 175.15 238.869 174.994 238.869 174.818ZM244.031 170.16V170.992H240.604V170.16H244.031ZM241.764 168.619H242.848V174.93C242.848 175.145 242.881 175.307 242.947 175.416C243.014 175.525 243.1 175.598 243.205 175.633C243.311 175.668 243.424 175.686 243.545 175.686C243.635 175.686 243.729 175.678 243.826 175.662C243.928 175.643 244.004 175.627 244.055 175.615L244.061 176.5C243.975 176.527 243.861 176.553 243.721 176.576C243.584 176.604 243.418 176.617 243.223 176.617C242.957 176.617 242.713 176.564 242.49 176.459C242.268 176.354 242.09 176.178 241.957 175.932C241.828 175.682 241.764 175.346 241.764 174.924V168.619ZM249.357 171.42V176.5H248.268V170.16H249.299L249.357 171.42ZM249.135 173.09L248.631 173.072C248.635 172.639 248.691 172.238 248.801 171.871C248.91 171.5 249.072 171.178 249.287 170.904C249.502 170.631 249.77 170.42 250.09 170.271C250.41 170.119 250.781 170.043 251.203 170.043C251.5 170.043 251.773 170.086 252.023 170.172C252.273 170.254 252.49 170.385 252.674 170.564C252.857 170.744 253 170.975 253.102 171.256C253.203 171.537 253.254 171.877 253.254 172.275V176.5H252.17V172.328C252.17 171.996 252.113 171.73 252 171.531C251.891 171.332 251.734 171.188 251.531 171.098C251.328 171.004 251.09 170.957 250.816 170.957C250.496 170.957 250.229 171.014 250.014 171.127C249.799 171.24 249.627 171.396 249.498 171.596C249.369 171.795 249.275 172.023 249.217 172.281C249.162 172.535 249.135 172.805 249.135 173.09ZM253.242 172.492L252.516 172.715C252.52 172.367 252.576 172.033 252.686 171.713C252.799 171.393 252.961 171.107 253.172 170.857C253.387 170.607 253.65 170.41 253.963 170.266C254.275 170.117 254.633 170.043 255.035 170.043C255.375 170.043 255.676 170.088 255.938 170.178C256.203 170.268 256.426 170.406 256.605 170.594C256.789 170.777 256.928 171.014 257.021 171.303C257.115 171.592 257.162 171.936 257.162 172.334V176.5H256.072V172.322C256.072 171.967 256.016 171.691 255.902 171.496C255.793 171.297 255.637 171.158 255.434 171.08C255.234 170.998 254.996 170.957 254.719 170.957C254.48 170.957 254.27 170.998 254.086 171.08C253.902 171.162 253.748 171.275 253.623 171.42C253.498 171.561 253.402 171.723 253.336 171.906C253.273 172.09 253.242 172.285 253.242 172.492ZM258.516 173.4V173.266C258.516 172.809 258.582 172.385 258.715 171.994C258.848 171.6 259.039 171.258 259.289 170.969C259.539 170.676 259.842 170.449 260.197 170.289C260.553 170.125 260.951 170.043 261.393 170.043C261.838 170.043 262.238 170.125 262.594 170.289C262.953 170.449 263.258 170.676 263.508 170.969C263.762 171.258 263.955 171.6 264.088 171.994C264.221 172.385 264.287 172.809 264.287 173.266V173.4C264.287 173.857 264.221 174.281 264.088 174.672C263.955 175.062 263.762 175.404 263.508 175.697C263.258 175.986 262.955 176.213 262.6 176.377C262.248 176.537 261.85 176.617 261.404 176.617C260.959 176.617 260.559 176.537 260.203 176.377C259.848 176.213 259.543 175.986 259.289 175.697C259.039 175.404 258.848 175.062 258.715 174.672C258.582 174.281 258.516 173.857 258.516 173.4ZM259.6 173.266V173.4C259.6 173.717 259.637 174.016 259.711 174.297C259.785 174.574 259.896 174.82 260.045 175.035C260.197 175.25 260.387 175.42 260.613 175.545C260.84 175.666 261.104 175.727 261.404 175.727C261.701 175.727 261.961 175.666 262.184 175.545C262.41 175.42 262.598 175.25 262.746 175.035C262.895 174.82 263.006 174.574 263.08 174.297C263.158 174.016 263.197 173.717 263.197 173.4V173.266C263.197 172.953 263.158 172.658 263.08 172.381C263.006 172.1 262.893 171.852 262.74 171.637C262.592 171.418 262.404 171.246 262.178 171.121C261.955 170.996 261.693 170.934 261.393 170.934C261.096 170.934 260.834 170.996 260.607 171.121C260.385 171.246 260.197 171.418 260.045 171.637C259.896 171.852 259.785 172.1 259.711 172.381C259.637 172.658 259.6 172.953 259.6 173.266ZM266.73 171.514V176.5H265.646V170.16H266.672L266.73 171.514ZM266.473 173.09L266.021 173.072C266.025 172.639 266.09 172.238 266.215 171.871C266.34 171.5 266.516 171.178 266.742 170.904C266.969 170.631 267.238 170.42 267.551 170.271C267.867 170.119 268.217 170.043 268.6 170.043C268.912 170.043 269.193 170.086 269.443 170.172C269.693 170.254 269.906 170.387 270.082 170.57C270.262 170.754 270.398 170.992 270.492 171.285C270.586 171.574 270.633 171.928 270.633 172.346V176.5H269.543V172.334C269.543 172.002 269.494 171.736 269.396 171.537C269.299 171.334 269.156 171.188 268.969 171.098C268.781 171.004 268.551 170.957 268.277 170.957C268.008 170.957 267.762 171.014 267.539 171.127C267.32 171.24 267.131 171.396 266.971 171.596C266.814 171.795 266.691 172.023 266.602 172.281C266.516 172.535 266.473 172.805 266.473 173.09ZM274.934 170.16V170.992H271.506V170.16H274.934ZM272.666 168.619H273.75V174.93C273.75 175.145 273.783 175.307 273.85 175.416C273.916 175.525 274.002 175.598 274.107 175.633C274.213 175.668 274.326 175.686 274.447 175.686C274.537 175.686 274.631 175.678 274.729 175.662C274.83 175.643 274.906 175.627 274.957 175.615L274.963 176.5C274.877 176.527 274.764 176.553 274.623 176.576C274.486 176.604 274.32 176.617 274.125 176.617C273.859 176.617 273.615 176.564 273.393 176.459C273.17 176.354 272.992 176.178 272.859 175.932C272.73 175.682 272.666 175.346 272.666 174.924V168.619ZM277.289 167.5V176.5H276.205V167.5H277.289ZM277.031 173.09L276.58 173.072C276.584 172.639 276.648 172.238 276.773 171.871C276.898 171.5 277.074 171.178 277.301 170.904C277.527 170.631 277.797 170.42 278.109 170.271C278.426 170.119 278.775 170.043 279.158 170.043C279.471 170.043 279.752 170.086 280.002 170.172C280.252 170.254 280.465 170.387 280.641 170.57C280.82 170.754 280.957 170.992 281.051 171.285C281.145 171.574 281.191 171.928 281.191 172.346V176.5H280.102V172.334C280.102 172.002 280.053 171.736 279.955 171.537C279.857 171.334 279.715 171.188 279.527 171.098C279.34 171.004 279.109 170.957 278.836 170.957C278.566 170.957 278.32 171.014 278.098 171.127C277.879 171.24 277.689 171.396 277.529 171.596C277.373 171.795 277.25 172.023 277.16 172.281C277.074 172.535 277.031 172.805 277.031 173.09Z" fill="#303030"/>
<rect x="585.327" y="0.326923" width="203.346" height="125.423" rx="6.21154" fill="#FEFDF9"/>
<rect x="585.327" y="0.326923" width="203.346" height="125.423" rx="6.21154" stroke="#99989C" stroke-width="0.653846"/>
<path d="M604.244 17.8973V18.9919H602.067V26.0769H600.725V18.9919H598.536V17.8973H604.244ZM608.416 26.1829C607.804 26.1829 607.25 26.0456 606.756 25.7709C606.262 25.4885 605.873 25.0962 605.591 24.594C605.309 24.084 605.167 23.4955 605.167 22.8286C605.167 22.1695 605.312 21.585 605.603 21.075C605.893 20.565 606.289 20.1727 606.791 19.8981C607.294 19.6235 607.855 19.4862 608.474 19.4862C609.094 19.4862 609.655 19.6235 610.157 19.8981C610.66 20.1727 611.056 20.565 611.346 21.075C611.636 21.585 611.782 22.1695 611.782 22.8286C611.782 23.4877 611.633 24.0722 611.334 24.5822C611.036 25.0922 610.628 25.4885 610.11 25.7709C609.6 26.0456 609.035 26.1829 608.416 26.1829ZM608.416 25.0177C608.761 25.0177 609.083 24.9353 609.381 24.7705C609.687 24.6058 609.934 24.3586 610.122 24.0291C610.31 23.6995 610.405 23.2994 610.405 22.8286C610.405 22.3579 610.314 21.9616 610.134 21.6399C609.953 21.3104 609.714 21.0632 609.416 20.8985C609.118 20.7337 608.796 20.6513 608.451 20.6513C608.106 20.6513 607.784 20.7337 607.486 20.8985C607.196 21.0632 606.964 21.3104 606.791 21.6399C606.619 21.9616 606.533 22.3579 606.533 22.8286C606.533 23.5269 606.709 24.0683 607.062 24.4528C607.423 24.8294 607.874 25.0177 608.416 25.0177ZM614.673 20.6866V24.2762C614.673 24.5195 614.728 24.696 614.838 24.8059C614.956 24.9079 615.152 24.9589 615.427 24.9589H616.25V26.0769H615.191C614.587 26.0769 614.124 25.9357 613.802 25.6532C613.481 25.3708 613.32 24.9118 613.32 24.2762V20.6866H612.555V19.5921H613.32V17.9797H614.673V19.5921H616.25V20.6866H614.673ZM617.04 22.8051C617.04 22.1539 617.173 21.5772 617.44 21.075C617.714 20.5729 618.083 20.1845 618.546 19.9099C619.017 19.6274 619.535 19.4862 620.1 19.4862C620.61 19.4862 621.053 19.5882 621.43 19.7922C621.814 19.9883 622.12 20.2355 622.348 20.5336V19.5921H623.701V26.0769H622.348V25.1119C622.12 25.4179 621.81 25.6729 621.418 25.8769C621.026 26.0809 620.578 26.1829 620.076 26.1829C619.519 26.1829 619.009 26.0416 618.546 25.7592C618.083 25.4689 617.714 25.0687 617.44 24.5587C617.173 24.0409 617.04 23.4563 617.04 22.8051ZM622.348 22.8286C622.348 22.3814 622.253 21.993 622.065 21.6635C621.885 21.3339 621.645 21.0829 621.347 20.9102C621.049 20.7376 620.727 20.6513 620.382 20.6513C620.037 20.6513 619.715 20.7376 619.417 20.9102C619.119 21.075 618.876 21.3222 618.687 21.6517C618.507 21.9734 618.417 22.3579 618.417 22.8051C618.417 23.2523 618.507 23.6446 618.687 23.982C618.876 24.3194 619.119 24.5783 619.417 24.7588C619.723 24.9314 620.045 25.0177 620.382 25.0177C620.727 25.0177 621.049 24.9314 621.347 24.7588C621.645 24.5862 621.885 24.3351 622.065 24.0055C622.253 23.6682 622.348 23.2759 622.348 22.8286ZM626.805 17.3677V26.0769H625.463V17.3677H626.805ZM632.966 18.9801V21.381H635.79V22.4755H632.966V24.9824H636.143V26.0769H631.624V17.8855H636.143V18.9801H632.966ZM645.646 19.4862C646.156 19.4862 646.611 19.5921 647.011 19.8039C647.419 20.0158 647.737 20.3296 647.964 20.7455C648.2 21.1613 648.317 21.6635 648.317 22.2519V26.0769H646.988V22.452C646.988 21.8714 646.842 21.4281 646.552 21.1221C646.262 20.8082 645.866 20.6513 645.363 20.6513C644.861 20.6513 644.461 20.8082 644.163 21.1221C643.873 21.4281 643.727 21.8714 643.727 22.452V26.0769H642.398V22.452C642.398 21.8714 642.252 21.4281 641.962 21.1221C641.672 20.8082 641.276 20.6513 640.773 20.6513C640.271 20.6513 639.871 20.8082 639.573 21.1221C639.283 21.4281 639.137 21.8714 639.137 22.452V26.0769H637.796V19.5921H639.137V20.3335C639.357 20.0668 639.636 19.8589 639.973 19.7098C640.31 19.5607 640.671 19.4862 641.056 19.4862C641.574 19.4862 642.037 19.596 642.445 19.8157C642.853 20.0354 643.166 20.3532 643.386 20.769C643.582 20.3767 643.888 20.0668 644.304 19.8392C644.72 19.6039 645.167 19.4862 645.646 19.4862ZM651.366 20.5454C651.594 20.2472 651.904 19.9962 652.296 19.7922C652.689 19.5882 653.132 19.4862 653.626 19.4862C654.191 19.4862 654.705 19.6274 655.168 19.9099C655.639 20.1845 656.007 20.5729 656.274 21.075C656.541 21.5772 656.674 22.1539 656.674 22.8051C656.674 23.4563 656.541 24.0409 656.274 24.5587C656.007 25.0687 655.639 25.4689 655.168 25.7592C654.705 26.0416 654.191 26.1829 653.626 26.1829C653.132 26.1829 652.692 26.0848 652.308 25.8886C651.924 25.6846 651.61 25.4335 651.366 25.1354V29.1605H650.025V19.5921H651.366V20.5454ZM655.309 22.8051C655.309 22.3579 655.215 21.9734 655.027 21.6517C654.846 21.3222 654.603 21.075 654.297 20.9102C653.999 20.7376 653.677 20.6513 653.332 20.6513C652.995 20.6513 652.673 20.7376 652.367 20.9102C652.069 21.0829 651.825 21.3339 651.637 21.6635C651.457 21.993 651.366 22.3814 651.366 22.8286C651.366 23.2759 651.457 23.6682 651.637 24.0055C651.825 24.3351 652.069 24.5862 652.367 24.7588C652.673 24.9314 652.995 25.0177 653.332 25.0177C653.677 25.0177 653.999 24.9314 654.297 24.7588C654.603 24.5783 654.846 24.3194 655.027 23.982C655.215 23.6446 655.309 23.2523 655.309 22.8051ZM659.343 17.3677V26.0769H658.001V17.3677H659.343ZM663.917 26.1829C663.305 26.1829 662.752 26.0456 662.258 25.7709C661.763 25.4885 661.375 25.0962 661.093 24.594C660.81 24.084 660.669 23.4955 660.669 22.8286C660.669 22.1695 660.814 21.585 661.104 21.075C661.395 20.565 661.791 20.1727 662.293 19.8981C662.795 19.6235 663.356 19.4862 663.976 19.4862C664.596 19.4862 665.157 19.6235 665.659 19.8981C666.161 20.1727 666.557 20.565 666.848 21.075C667.138 21.585 667.283 22.1695 667.283 22.8286C667.283 23.4877 667.134 24.0722 666.836 24.5822C666.538 25.0922 666.13 25.4885 665.612 25.7709C665.102 26.0456 664.537 26.1829 663.917 26.1829ZM663.917 25.0177C664.262 25.0177 664.584 24.9353 664.882 24.7705C665.188 24.6058 665.435 24.3586 665.624 24.0291C665.812 23.6995 665.906 23.2994 665.906 22.8286C665.906 22.3579 665.816 21.9616 665.636 21.6399C665.455 21.3104 665.216 21.0632 664.918 20.8985C664.619 20.7337 664.298 20.6513 663.953 20.6513C663.607 20.6513 663.286 20.7337 662.987 20.8985C662.697 21.0632 662.466 21.3104 662.293 21.6399C662.12 21.9616 662.034 22.3579 662.034 22.8286C662.034 23.5269 662.211 24.0683 662.564 24.4528C662.925 24.8294 663.376 25.0177 663.917 25.0177ZM674.447 19.5921L670.469 29.1252H669.08L670.398 25.971L667.845 19.5921H669.339L671.163 24.5352L673.058 19.5921H674.447ZM681.403 22.6756C681.403 22.9189 681.387 23.1385 681.356 23.3347H676.401C676.44 23.8525 676.633 24.2684 676.978 24.5822C677.323 24.8961 677.747 25.053 678.249 25.053C678.971 25.053 679.481 24.7509 679.779 24.1468H681.227C681.03 24.7431 680.673 25.2335 680.156 25.6179C679.646 25.9946 679.01 26.1829 678.249 26.1829C677.629 26.1829 677.072 26.0456 676.578 25.7709C676.091 25.4885 675.707 25.0962 675.424 24.594C675.15 24.084 675.012 23.4955 675.012 22.8286C675.012 22.1617 675.146 21.5772 675.413 21.075C675.687 20.565 676.068 20.1727 676.554 19.8981C677.048 19.6235 677.613 19.4862 678.249 19.4862C678.861 19.4862 679.406 19.6195 679.885 19.8863C680.363 20.1531 680.736 20.5297 681.003 21.0162C681.27 21.4948 681.403 22.0479 681.403 22.6756ZM680.003 22.2519C679.995 21.7576 679.818 21.3614 679.473 21.0632C679.128 20.7651 678.7 20.616 678.19 20.616C677.727 20.616 677.331 20.7651 677.001 21.0632C676.672 21.3535 676.476 21.7498 676.413 22.2519H680.003ZM688.667 22.6756C688.667 22.9189 688.651 23.1385 688.62 23.3347H683.665C683.704 23.8525 683.896 24.2684 684.242 24.5822C684.587 24.8961 685.011 25.053 685.513 25.053C686.235 25.053 686.745 24.7509 687.043 24.1468H688.49C688.294 24.7431 687.937 25.2335 687.419 25.6179C686.909 25.9946 686.274 26.1829 685.513 26.1829C684.893 26.1829 684.336 26.0456 683.842 25.7709C683.355 25.4885 682.971 25.0962 682.688 24.594C682.414 24.084 682.276 23.4955 682.276 22.8286C682.276 22.1617 682.41 21.5772 682.676 21.075C682.951 20.565 683.332 20.1727 683.818 19.8981C684.312 19.6235 684.877 19.4862 685.513 19.4862C686.125 19.4862 686.67 19.6195 687.149 19.8863C687.627 20.1531 688 20.5297 688.267 21.0162C688.534 21.4948 688.667 22.0479 688.667 22.6756ZM687.266 22.2519C687.259 21.7576 687.082 21.3614 686.737 21.0632C686.392 20.7651 685.964 20.616 685.454 20.616C684.991 20.616 684.595 20.7651 684.265 21.0632C683.936 21.3535 683.74 21.7498 683.677 22.2519H687.266ZM692.341 26.1829C691.831 26.1829 691.372 26.0926 690.964 25.9122C690.564 25.7239 690.246 25.4728 690.011 25.1589C689.775 24.8372 689.65 24.4802 689.634 24.0879H691.023C691.046 24.3625 691.176 24.594 691.411 24.7823C691.655 24.9628 691.957 25.053 692.318 25.053C692.694 25.053 692.985 24.9824 693.189 24.8412C693.4 24.6921 693.506 24.5038 693.506 24.2762C693.506 24.033 693.389 23.8525 693.153 23.7349C692.926 23.6172 692.561 23.4877 692.059 23.3465C691.572 23.2131 691.176 23.0836 690.87 22.9581C690.564 22.8325 690.297 22.6403 690.07 22.3814C689.85 22.1225 689.74 21.7812 689.74 21.3575C689.74 21.0122 689.842 20.6984 690.046 20.4159C690.25 20.1256 690.54 19.8981 690.917 19.7333C691.302 19.5685 691.741 19.4862 692.235 19.4862C692.973 19.4862 693.565 19.6745 694.012 20.0511C694.467 20.4199 694.711 20.9259 694.742 21.5693H693.4C693.377 21.279 693.259 21.0475 693.047 20.8749C692.835 20.7023 692.549 20.616 692.188 20.616C691.835 20.616 691.564 20.6827 691.376 20.8161C691.188 20.9495 691.094 21.126 691.094 21.3457C691.094 21.5183 691.156 21.6635 691.282 21.7812C691.407 21.8989 691.56 21.993 691.741 22.0636C691.921 22.1264 692.188 22.2088 692.541 22.3108C693.012 22.4363 693.396 22.5658 693.695 22.6992C694.001 22.8247 694.263 23.013 694.483 23.2641C694.703 23.5152 694.817 23.8486 694.824 24.2645C694.824 24.6332 694.722 24.9628 694.518 25.2531C694.314 25.5434 694.024 25.7709 693.648 25.9357C693.279 26.1005 692.843 26.1829 692.341 26.1829Z" fill="#221F26"/>
<path d="M601.937 61.5969C603.946 59.8603 605.526 58.4375 606.676 57.3286C607.848 56.1988 608.821 55.0271 609.595 53.8135C610.369 52.6 610.756 51.3865 610.756 50.1729C610.756 48.9175 610.453 47.9342 609.846 47.2228C609.26 46.5114 608.329 46.1557 607.053 46.1557C605.818 46.1557 604.856 46.5532 604.166 47.3483C603.496 48.1225 603.14 49.1686 603.098 50.4868H599.646C599.709 48.1015 600.42 46.2812 601.78 45.0258C603.161 43.7495 604.908 43.1114 607.022 43.1114C609.302 43.1114 611.081 43.7391 612.357 44.9945C613.654 46.2498 614.303 47.9237 614.303 50.016C614.303 51.5225 613.916 52.9766 613.142 54.3785C612.388 55.7594 611.478 57.0043 610.411 58.1132C609.365 59.2012 608.026 60.4671 606.394 61.9108L604.982 63.1662H614.93V66.1477H599.678V63.5428L601.937 61.5969ZM620.051 61.5969C622.059 59.8603 623.639 58.4375 624.79 57.3286C625.962 56.1988 626.934 55.0271 627.709 53.8135C628.483 52.6 628.87 51.3865 628.87 50.1729C628.87 48.9175 628.566 47.9342 627.96 47.2228C627.374 46.5114 626.443 46.1557 625.166 46.1557C623.932 46.1557 622.97 46.5532 622.279 47.3483C621.61 48.1225 621.254 49.1686 621.212 50.4868H617.76C617.822 48.1015 618.534 46.2812 619.894 45.0258C621.275 43.7495 623.022 43.1114 625.135 43.1114C627.416 43.1114 629.194 43.7391 630.47 44.9945C631.768 46.2498 632.416 47.9237 632.416 50.016C632.416 51.5225 632.029 52.9766 631.255 54.3785C630.502 55.7594 629.592 57.0043 628.525 58.1132C627.478 59.2012 626.139 60.4671 624.507 61.9108L623.095 63.1662H633.044V66.1477H617.791V63.5428L620.051 61.5969ZM636.187 54.7237C636.187 51.104 636.794 48.2794 638.007 46.2498C639.242 44.1994 641.355 43.1742 644.347 43.1742C647.339 43.1742 649.442 44.1994 650.655 46.2498C651.89 48.2794 652.507 51.104 652.507 54.7237C652.507 58.3852 651.89 61.2517 650.655 63.3231C649.442 65.3735 647.339 66.3988 644.347 66.3988C641.355 66.3988 639.242 65.3735 638.007 63.3231C636.794 61.2517 636.187 58.3852 636.187 54.7237ZM648.992 54.7237C648.992 53.0289 648.877 51.5957 648.647 50.424C648.438 49.2523 647.998 48.3003 647.329 47.568C646.659 46.8148 645.665 46.4382 644.347 46.4382C643.029 46.4382 642.035 46.8148 641.366 47.568C640.696 48.3003 640.246 49.2523 640.016 50.424C639.807 51.5957 639.702 53.0289 639.702 54.7237C639.702 56.4812 639.807 57.9563 640.016 59.1489C640.225 60.3415 640.665 61.304 641.334 62.0363C642.025 62.7686 643.029 63.1348 644.347 63.1348C645.665 63.1348 646.659 62.7686 647.329 62.0363C648.019 61.304 648.469 60.3415 648.678 59.1489C648.887 57.9563 648.992 56.4812 648.992 54.7237Z" fill="#221F26"/>
<path d="M600.87 89.7759V95.3846H600.161V90.6609L598.732 91.1819V90.5421L600.759 89.7759H600.87ZM606.609 94.8023V95.3846H602.958V94.8751L604.785 92.8408C605.01 92.5905 605.184 92.3785 605.306 92.2048C605.431 92.0286 605.518 91.8715 605.567 91.7336C605.618 91.5931 605.643 91.4501 605.643 91.3045C605.643 91.1206 605.605 90.9546 605.528 90.8064C605.454 90.6558 605.345 90.5357 605.199 90.4463C605.053 90.3569 604.877 90.3122 604.67 90.3122C604.423 90.3122 604.216 90.3608 604.05 90.4578C603.886 90.5523 603.764 90.6851 603.682 90.8562C603.6 91.0274 603.559 91.224 603.559 91.4462H602.85C602.85 91.1321 602.919 90.8448 603.057 90.5842C603.195 90.3237 603.4 90.1168 603.67 89.9636C603.941 89.8078 604.274 89.7299 604.67 89.7299C605.023 89.7299 605.324 89.7925 605.574 89.9176C605.825 90.0402 606.016 90.2139 606.149 90.4387C606.284 90.6609 606.352 90.9214 606.352 91.2202C606.352 91.3837 606.324 91.5497 606.268 91.7183C606.214 91.8843 606.139 92.0503 606.042 92.2163C605.947 92.3823 605.836 92.5458 605.709 92.7067C605.583 92.8676 605.449 93.0259 605.306 93.1817L603.812 94.8023H606.609ZM610.869 92.1512V93.0017C610.869 93.4589 610.828 93.8445 610.746 94.1587C610.665 94.4728 610.547 94.7257 610.394 94.9172C610.241 95.1088 610.056 95.248 609.838 95.3348C609.624 95.4191 609.381 95.4613 609.111 95.4613C608.896 95.4613 608.698 95.4344 608.517 95.3808C608.335 95.3272 608.172 95.2416 608.026 95.1241C607.883 95.0041 607.761 94.8483 607.659 94.6567C607.556 94.4652 607.479 94.2328 607.425 93.9595C607.371 93.6862 607.344 93.3669 607.344 93.0017V92.1512C607.344 91.694 607.385 91.3109 607.467 91.0018C607.551 90.6928 607.67 90.445 607.823 90.2586C607.977 90.0696 608.16 89.9342 608.375 89.8525C608.592 89.7708 608.835 89.7299 609.103 89.7299C609.32 89.7299 609.519 89.7567 609.701 89.8103C609.884 89.8614 610.048 89.9444 610.191 90.0594C610.334 90.1718 610.455 90.3224 610.555 90.5114C610.657 90.6979 610.735 90.9265 610.789 91.1972C610.842 91.468 610.869 91.7859 610.869 92.1512ZM610.156 93.1166V92.0324C610.156 91.7821 610.141 91.5625 610.11 91.3734C610.082 91.1819 610.04 91.0184 609.984 90.8831C609.928 90.7477 609.856 90.6379 609.77 90.5536C609.685 90.4693 609.587 90.408 609.475 90.3697C609.365 90.3288 609.241 90.3084 609.103 90.3084C608.934 90.3084 608.785 90.3403 608.655 90.4042C608.524 90.4655 608.415 90.5638 608.325 90.6992C608.238 90.8345 608.172 91.012 608.126 91.2317C608.08 91.4513 608.057 91.7183 608.057 92.0324V93.1166C608.057 93.3669 608.071 93.5878 608.099 93.7794C608.13 93.971 608.174 94.137 608.233 94.2774C608.292 94.4154 608.363 94.529 608.448 94.6184C608.532 94.7078 608.629 94.7742 608.739 94.8176C608.851 94.8585 608.975 94.8789 609.111 94.8789C609.284 94.8789 609.436 94.8457 609.566 94.7793C609.697 94.7129 609.805 94.6095 609.892 94.469C609.982 94.326 610.048 94.1434 610.091 93.9212C610.135 93.6964 610.156 93.4282 610.156 93.1166ZM614.145 89.8065H614.861L616.689 94.3541L618.512 89.8065H619.232L616.964 95.3846H616.405L614.145 89.8065ZM613.911 89.8065H614.543L614.647 93.2086V95.3846H613.911V89.8065ZM618.83 89.8065H619.462V95.3846H618.727V93.2086L618.83 89.8065ZM622.374 95.4613C622.085 95.4613 621.824 95.4127 621.589 95.3157C621.356 95.2161 621.156 95.0769 620.987 94.8981C620.821 94.7193 620.693 94.5073 620.604 94.2621C620.515 94.0169 620.47 93.7488 620.47 93.4576V93.2967C620.47 92.9595 620.52 92.6594 620.619 92.3964C620.719 92.1307 620.854 91.906 621.025 91.7221C621.197 91.5382 621.391 91.399 621.608 91.3045C621.825 91.21 622.05 91.1627 622.282 91.1627C622.578 91.1627 622.834 91.2138 623.048 91.316C623.265 91.4181 623.443 91.5612 623.581 91.7451C623.719 91.9264 623.821 92.141 623.887 92.3887C623.954 92.6339 623.987 92.9021 623.987 93.1932V93.5112H620.891V92.9327H623.278V92.8791C623.268 92.6952 623.23 92.5164 623.163 92.3427C623.099 92.169 622.997 92.026 622.857 91.9136C622.716 91.8013 622.525 91.7451 622.282 91.7451C622.121 91.7451 621.973 91.7795 621.838 91.8485C621.702 91.9149 621.586 92.0145 621.489 92.1473C621.392 92.2802 621.317 92.4423 621.263 92.6339C621.209 92.8254 621.182 93.0464 621.182 93.2967V93.4576C621.182 93.6542 621.209 93.8394 621.263 94.0131C621.319 94.1842 621.4 94.3349 621.504 94.4652C621.612 94.5954 621.741 94.6976 621.891 94.7717C622.044 94.8457 622.218 94.8828 622.412 94.8828C622.663 94.8828 622.875 94.8317 623.048 94.7295C623.222 94.6274 623.374 94.4907 623.504 94.3196L623.933 94.6606C623.844 94.7959 623.73 94.9249 623.592 95.0475C623.454 95.1701 623.284 95.2697 623.083 95.3463C622.883 95.423 622.647 95.4613 622.374 95.4613ZM625.523 92.1244V95.3846H624.814V91.2394H625.485L625.523 92.1244ZM625.355 93.1549L625.06 93.1434C625.062 92.8599 625.104 92.5981 625.186 92.358C625.268 92.1154 625.383 91.9047 625.531 91.7259C625.679 91.5471 625.855 91.4092 626.059 91.3122C626.266 91.2125 626.495 91.1627 626.745 91.1627C626.95 91.1627 627.133 91.1908 627.297 91.247C627.46 91.3007 627.6 91.3875 627.715 91.5075C627.832 91.6276 627.921 91.7834 627.983 91.9749C628.044 92.1639 628.075 92.3951 628.075 92.6684V95.3846H627.362V92.6607C627.362 92.4436 627.33 92.2699 627.266 92.1397C627.202 92.0069 627.109 91.9111 626.987 91.8523C626.864 91.791 626.713 91.7604 626.535 91.7604C626.358 91.7604 626.197 91.7974 626.052 91.8715C625.909 91.9456 625.785 92.0477 625.68 92.178C625.578 92.3082 625.498 92.4577 625.439 92.6262C625.383 92.7922 625.355 92.9685 625.355 93.1549Z" fill="#6A696E"/>
<path d="M599.245 109.406H599.318C599.727 109.406 600.059 109.349 600.314 109.234C600.57 109.119 600.766 108.964 600.904 108.77C601.042 108.576 601.137 108.358 601.188 108.115C601.239 107.87 601.264 107.618 601.264 107.36V106.506C601.264 106.253 601.235 106.028 601.176 105.832C601.12 105.635 601.041 105.47 600.939 105.338C600.839 105.205 600.725 105.104 600.598 105.035C600.47 104.966 600.335 104.931 600.192 104.931C600.028 104.931 599.881 104.965 599.751 105.031C599.623 105.095 599.515 105.186 599.425 105.303C599.339 105.421 599.272 105.558 599.226 105.717C599.18 105.875 599.157 106.048 599.157 106.234C599.157 106.4 599.178 106.561 599.219 106.717C599.259 106.873 599.322 107.013 599.406 107.138C599.491 107.263 599.595 107.363 599.72 107.437C599.848 107.509 599.998 107.544 600.169 107.544C600.327 107.544 600.475 107.514 600.613 107.452C600.754 107.388 600.877 107.303 600.985 107.196C601.095 107.086 601.181 106.962 601.245 106.824C601.312 106.686 601.35 106.542 601.36 106.391H601.697C601.697 106.603 601.655 106.813 601.571 107.019C601.489 107.224 601.374 107.41 601.226 107.579C601.078 107.747 600.904 107.883 600.705 107.985C600.506 108.084 600.289 108.134 600.054 108.134C599.778 108.134 599.539 108.081 599.337 107.973C599.136 107.866 598.97 107.723 598.839 107.544C598.712 107.365 598.616 107.166 598.552 106.947C598.491 106.724 598.46 106.5 598.46 106.272C598.46 106.007 598.497 105.758 598.571 105.525C598.645 105.293 598.755 105.089 598.901 104.912C599.046 104.734 599.226 104.594 599.441 104.495C599.658 104.395 599.908 104.345 600.192 104.345C600.511 104.345 600.783 104.409 601.008 104.537C601.232 104.665 601.415 104.836 601.556 105.05C601.699 105.265 601.803 105.506 601.87 105.774C601.936 106.042 601.969 106.318 601.969 106.602V106.859C601.969 107.147 601.95 107.441 601.912 107.74C601.876 108.036 601.806 108.319 601.701 108.59C601.599 108.861 601.45 109.104 601.253 109.318C601.056 109.53 600.8 109.699 600.483 109.824C600.169 109.946 599.78 110.008 599.318 110.008H599.245V109.406ZM605.674 104.414H605.735V105.016H605.674C605.299 105.016 604.984 105.077 604.732 105.2C604.479 105.32 604.278 105.482 604.13 105.686C603.982 105.888 603.875 106.115 603.808 106.368C603.744 106.621 603.712 106.878 603.712 107.138V107.958C603.712 108.206 603.742 108.425 603.801 108.617C603.859 108.806 603.94 108.966 604.042 109.096C604.144 109.226 604.259 109.324 604.387 109.391C604.517 109.457 604.652 109.49 604.793 109.49C604.956 109.49 605.102 109.46 605.23 109.399C605.357 109.335 605.465 109.247 605.551 109.134C605.641 109.019 605.709 108.884 605.754 108.728C605.8 108.572 605.823 108.401 605.823 108.215C605.823 108.049 605.803 107.889 605.762 107.736C605.721 107.58 605.659 107.442 605.574 107.322C605.49 107.199 605.384 107.104 605.256 107.035C605.131 106.963 604.982 106.927 604.808 106.927C604.612 106.927 604.428 106.976 604.257 107.073C604.088 107.168 603.949 107.293 603.839 107.448C603.732 107.602 603.67 107.769 603.655 107.95L603.28 107.947C603.315 107.66 603.382 107.417 603.479 107.215C603.578 107.01 603.701 106.844 603.847 106.717C603.995 106.586 604.159 106.492 604.341 106.433C604.525 106.372 604.719 106.341 604.923 106.341C605.202 106.341 605.442 106.394 605.643 106.498C605.845 106.603 606.011 106.744 606.141 106.92C606.272 107.093 606.367 107.29 606.429 107.51C606.493 107.727 606.525 107.95 606.525 108.18C606.525 108.443 606.488 108.69 606.413 108.92C606.339 109.15 606.228 109.351 606.08 109.525C605.935 109.699 605.754 109.834 605.54 109.931C605.325 110.028 605.076 110.077 604.793 110.077C604.491 110.077 604.228 110.015 604.004 109.893C603.779 109.768 603.592 109.602 603.444 109.395C603.296 109.188 603.185 108.958 603.111 108.705C603.037 108.452 603 108.196 603 107.935V107.602C603 107.208 603.039 106.823 603.119 106.445C603.198 106.067 603.334 105.724 603.529 105.418C603.725 105.112 603.997 104.868 604.345 104.686C604.692 104.505 605.135 104.414 605.674 104.414ZM610.965 108.314L612.072 104.422H612.608L612.298 105.935L611.107 110H610.574L610.965 108.314ZM609.819 104.422L610.7 108.238L610.965 110H610.436L609.084 104.422H609.819ZM614.041 108.234L614.903 104.422H615.643L614.294 110H613.765L614.041 108.234ZM612.689 104.422L613.765 108.314L614.156 110H613.624L612.474 105.935L612.16 104.422H612.689ZM616.045 107.973V107.885C616.045 107.586 616.088 107.309 616.175 107.054C616.262 106.796 616.387 106.572 616.551 106.383C616.714 106.192 616.912 106.044 617.144 105.939C617.377 105.832 617.637 105.778 617.926 105.778C618.217 105.778 618.479 105.832 618.711 105.939C618.946 106.044 619.146 106.192 619.309 106.383C619.475 106.572 619.601 106.796 619.688 107.054C619.775 107.309 619.819 107.586 619.819 107.885V107.973C619.819 108.272 619.775 108.549 619.688 108.805C619.601 109.06 619.475 109.284 619.309 109.475C619.146 109.664 618.948 109.812 618.715 109.92C618.485 110.024 618.225 110.077 617.934 110.077C617.642 110.077 617.381 110.024 617.148 109.92C616.916 109.812 616.717 109.664 616.551 109.475C616.387 109.284 616.262 109.06 616.175 108.805C616.088 108.549 616.045 108.272 616.045 107.973ZM616.754 107.885V107.973C616.754 108.18 616.778 108.376 616.826 108.56C616.875 108.741 616.948 108.902 617.045 109.042C617.144 109.183 617.268 109.294 617.416 109.376C617.565 109.455 617.737 109.494 617.934 109.494C618.128 109.494 618.298 109.455 618.443 109.376C618.591 109.294 618.714 109.183 618.811 109.042C618.908 108.902 618.981 108.741 619.029 108.56C619.08 108.376 619.106 108.18 619.106 107.973V107.885C619.106 107.681 619.08 107.488 619.029 107.307C618.981 107.123 618.907 106.961 618.807 106.82C618.71 106.677 618.588 106.565 618.439 106.483C618.294 106.401 618.123 106.36 617.926 106.36C617.732 106.36 617.561 106.401 617.413 106.483C617.267 106.565 617.144 106.677 617.045 106.82C616.948 106.961 616.875 107.123 616.826 107.307C616.778 107.488 616.754 107.681 616.754 107.885ZM621.412 106.678V110H620.7V105.855H621.374L621.412 106.678ZM621.267 107.77L620.937 107.759C620.94 107.475 620.977 107.214 621.048 106.973C621.12 106.731 621.226 106.52 621.366 106.341C621.507 106.163 621.682 106.025 621.891 105.928C622.101 105.828 622.343 105.778 622.619 105.778C622.813 105.778 622.992 105.806 623.155 105.862C623.319 105.916 623.461 106.002 623.581 106.119C623.701 106.237 623.794 106.387 623.86 106.571C623.927 106.755 623.96 106.977 623.96 107.238V110H623.251V107.272C623.251 107.055 623.214 106.881 623.14 106.751C623.069 106.621 622.966 106.526 622.834 106.468C622.701 106.406 622.545 106.376 622.366 106.376C622.157 106.376 621.982 106.413 621.841 106.487C621.701 106.561 621.589 106.663 621.504 106.793C621.42 106.924 621.359 107.073 621.32 107.242C621.285 107.408 621.267 107.584 621.267 107.77ZM623.952 107.38L623.477 107.525C623.48 107.298 623.517 107.079 623.588 106.87C623.662 106.661 623.768 106.474 623.906 106.311C624.047 106.147 624.219 106.018 624.424 105.924C624.628 105.827 624.862 105.778 625.125 105.778C625.347 105.778 625.544 105.807 625.715 105.866C625.888 105.925 626.034 106.016 626.151 106.138C626.271 106.258 626.362 106.413 626.423 106.602C626.485 106.791 626.515 107.016 626.515 107.276V110H625.803V107.268C625.803 107.036 625.766 106.856 625.692 106.728C625.62 106.598 625.518 106.507 625.385 106.456C625.255 106.403 625.099 106.376 624.918 106.376C624.762 106.376 624.624 106.403 624.504 106.456C624.384 106.51 624.283 106.584 624.201 106.678C624.12 106.77 624.057 106.876 624.014 106.996C623.973 107.116 623.952 107.244 623.952 107.38ZM629.308 110.077C629.02 110.077 628.758 110.028 628.523 109.931C628.29 109.831 628.09 109.692 627.921 109.513C627.755 109.335 627.628 109.123 627.538 108.878C627.449 108.632 627.404 108.364 627.404 108.073V107.912C627.404 107.575 627.454 107.275 627.554 107.012C627.653 106.746 627.789 106.521 627.96 106.337C628.131 106.154 628.325 106.014 628.542 105.92C628.759 105.825 628.984 105.778 629.216 105.778C629.513 105.778 629.768 105.829 629.983 105.931C630.2 106.034 630.377 106.177 630.515 106.36C630.653 106.542 630.755 106.756 630.822 107.004C630.888 107.249 630.921 107.517 630.921 107.809V108.127H627.826V107.548H630.212V107.494C630.202 107.311 630.164 107.132 630.097 106.958C630.034 106.784 629.931 106.641 629.791 106.529C629.651 106.417 629.459 106.36 629.216 106.36C629.055 106.36 628.907 106.395 628.772 106.464C628.637 106.53 628.52 106.63 628.423 106.763C628.326 106.896 628.251 107.058 628.197 107.249C628.144 107.441 628.117 107.662 628.117 107.912V108.073C628.117 108.27 628.144 108.455 628.197 108.628C628.253 108.8 628.334 108.95 628.439 109.081C628.546 109.211 628.675 109.313 628.826 109.387C628.979 109.461 629.152 109.498 629.347 109.498C629.597 109.498 629.809 109.447 629.983 109.345C630.156 109.243 630.308 109.106 630.438 108.935L630.868 109.276C630.778 109.411 630.665 109.54 630.527 109.663C630.389 109.785 630.219 109.885 630.017 109.962C629.818 110.038 629.582 110.077 629.308 110.077ZM632.457 106.74V110H631.749V105.855H632.419L632.457 106.74ZM632.289 107.77L631.994 107.759C631.996 107.475 632.039 107.214 632.12 106.973C632.202 106.731 632.317 106.52 632.465 106.341C632.613 106.163 632.79 106.025 632.994 105.928C633.201 105.828 633.429 105.778 633.68 105.778C633.884 105.778 634.068 105.806 634.231 105.862C634.395 105.916 634.534 106.003 634.649 106.123C634.766 106.243 634.856 106.399 634.917 106.59C634.978 106.779 635.009 107.01 635.009 107.284V110H634.296V107.276C634.296 107.059 634.264 106.885 634.201 106.755C634.137 106.622 634.044 106.526 633.921 106.468C633.798 106.406 633.648 106.376 633.469 106.376C633.293 106.376 633.132 106.413 632.986 106.487C632.843 106.561 632.719 106.663 632.615 106.793C632.512 106.924 632.432 107.073 632.373 107.242C632.317 107.408 632.289 107.584 632.289 107.77Z" fill="#6A696E"/>
<path d="M700.731 56.8269C700.731 56.8269 710.723 44.8672 719.692 43.0961C726.513 41.7494 730.473 46.4258 737.346 45.3846C747.989 43.7724 750.028 32.256 760.558 30.0192C766.427 28.7724 775.596 30.0192 775.596 30.0192" stroke="#1A60FE" stroke-width="1.30769" stroke-linecap="round"/>
<path d="M720.019 42.9964C711.05 44.7675 701.058 56.7272 701.058 56.7272V74.4808H775.923V29.9195C775.923 29.9195 766.754 28.6727 760.885 29.9195C750.355 32.1563 748.316 43.6727 737.673 45.2849C730.8 46.3261 726.84 41.6497 720.019 42.9964Z" fill="url(#paint1_linear_2015_23)"/>
<path d="M730.337 29.265C730.294 29.265 730.256 29.2497 730.226 29.2192C730.195 29.1887 730.18 29.1517 730.18 29.1081V27.8331H728.925C728.881 27.8331 728.844 27.8178 728.814 27.7873C728.783 27.7568 728.768 27.7197 728.768 27.6762V27.3296C728.768 27.2817 728.783 27.2446 728.814 27.2185C728.844 27.188 728.881 27.1727 728.925 27.1727H730.18V25.9304C730.18 25.8868 730.195 25.8497 730.226 25.8192C730.256 25.7887 730.294 25.7735 730.337 25.7735H730.716C730.764 25.7735 730.801 25.7887 730.827 25.8192C730.858 25.8497 730.873 25.8868 730.873 25.9304V27.1727H732.129C732.172 27.1727 732.209 27.188 732.24 27.2185C732.27 27.2446 732.286 27.2817 732.286 27.3296V27.6762C732.286 27.7197 732.27 27.7568 732.24 27.7873C732.209 27.8178 732.172 27.8331 732.129 27.8331H730.873V29.1081C730.873 29.1517 730.858 29.1887 730.827 29.2192C730.801 29.2497 730.764 29.265 730.716 29.265H730.337ZM734.536 29.5527C734.162 29.5527 733.846 29.4917 733.588 29.3696C733.331 29.2432 733.135 29.0797 733 28.8792C732.869 28.6787 732.799 28.4651 732.791 28.2385C732.786 28.1992 732.797 28.1687 732.823 28.1469C732.854 28.1208 732.889 28.1077 732.928 28.1077H733.536C733.584 28.1077 733.623 28.1186 733.654 28.1404C733.689 28.1578 733.715 28.1905 733.732 28.2385C733.776 28.3692 733.837 28.476 733.915 28.5589C733.998 28.6417 734.092 28.7027 734.196 28.7419C734.305 28.7812 734.419 28.8008 734.536 28.8008C734.693 28.8008 734.835 28.7703 734.961 28.7092C735.092 28.6439 735.197 28.548 735.275 28.4215C735.354 28.2951 735.393 28.1404 735.393 27.9573C735.393 27.796 735.356 27.6565 735.282 27.5389C735.208 27.4212 735.105 27.3296 734.975 27.2642C734.848 27.1945 734.702 27.1596 734.536 27.1596C734.414 27.1596 734.314 27.1749 734.236 27.2054C734.157 27.2359 734.09 27.2708 734.033 27.31C733.981 27.3492 733.933 27.3841 733.889 27.4146C733.85 27.4451 733.804 27.4604 733.752 27.4604H733.15C733.111 27.4604 733.076 27.4473 733.046 27.4212C733.02 27.3906 733.006 27.3558 733.006 27.3165L733.235 25.0804C733.24 25.0237 733.259 24.9801 733.294 24.9496C733.329 24.9191 733.37 24.9038 733.418 24.9038H735.877C735.92 24.9038 735.958 24.9191 735.988 24.9496C736.019 24.9801 736.034 25.0172 736.034 25.0608V25.4988C736.034 25.5424 736.019 25.5795 735.988 25.61C735.958 25.6405 735.92 25.6558 735.877 25.6558H733.987L733.883 26.7215C733.961 26.6692 734.066 26.6191 734.196 26.5712C734.327 26.5232 734.508 26.4992 734.739 26.4992C734.948 26.4992 735.147 26.5341 735.334 26.6038C735.526 26.6692 735.696 26.7673 735.844 26.8981C735.992 27.0245 736.108 27.1792 736.191 27.3623C736.278 27.541 736.321 27.7459 736.321 27.9769C736.321 28.2951 736.247 28.5719 736.099 28.8073C735.951 29.0427 735.744 29.2258 735.478 29.3565C735.212 29.4873 734.898 29.5527 734.536 29.5527ZM737.31 29.4808C737.218 29.4808 737.172 29.4372 737.172 29.35C737.172 29.3239 737.181 29.2999 737.198 29.2781L740.422 25.0281C740.452 24.9888 740.483 24.9583 740.513 24.9365C740.544 24.9147 740.588 24.9038 740.644 24.9038H740.991C741.082 24.9038 741.128 24.9474 741.128 25.0346C741.128 25.0608 741.119 25.0847 741.102 25.1065L737.878 29.3565C737.848 29.3958 737.817 29.4263 737.787 29.4481C737.761 29.4699 737.717 29.4808 737.656 29.4808H737.31ZM740.455 29.52C740.163 29.52 739.931 29.4394 739.761 29.2781C739.591 29.1168 739.498 28.9054 739.48 28.6439C739.476 28.5305 739.474 28.4324 739.474 28.3496C739.474 28.2668 739.476 28.1644 739.48 28.0423C739.498 27.7808 739.587 27.5694 739.748 27.4081C739.914 27.2468 740.149 27.1662 740.455 27.1662C740.764 27.1662 740.999 27.2468 741.161 27.4081C741.326 27.5694 741.416 27.7808 741.429 28.0423C741.438 28.1644 741.442 28.2668 741.442 28.3496C741.442 28.4324 741.438 28.5305 741.429 28.6439C741.416 28.9054 741.322 29.1168 741.148 29.2781C740.978 29.4394 740.747 29.52 740.455 29.52ZM740.455 29.01C740.55 29.01 740.625 28.9904 740.677 28.9512C740.734 28.9119 740.775 28.8618 740.801 28.8008C740.827 28.7397 740.84 28.6787 740.84 28.6177C740.849 28.5087 740.853 28.4172 740.853 28.3431C740.853 28.2646 740.849 28.1753 740.84 28.075C740.836 27.9747 740.805 27.8832 740.749 27.8004C740.692 27.7132 740.594 27.6696 740.455 27.6696C740.319 27.6696 740.224 27.7132 740.167 27.8004C740.11 27.8832 740.078 27.9747 740.069 28.075C740.064 28.1753 740.062 28.2646 740.062 28.3431C740.062 28.4172 740.064 28.5087 740.069 28.6177C740.078 28.6787 740.093 28.7397 740.115 28.8008C740.141 28.8618 740.18 28.9119 740.232 28.9512C740.289 28.9904 740.363 29.01 740.455 29.01ZM737.846 27.2054C737.554 27.2054 737.323 27.1291 737.153 26.9765C736.983 26.824 736.889 26.6169 736.871 26.3554C736.867 26.2421 736.865 26.144 736.865 26.0612C736.865 25.974 736.867 25.8694 736.871 25.7473C736.889 25.4858 736.978 25.2744 737.14 25.1131C737.305 24.9518 737.541 24.8712 737.846 24.8712C738.155 24.8712 738.391 24.9518 738.552 25.1131C738.718 25.2744 738.807 25.4858 738.82 25.7473C738.829 25.8694 738.833 25.974 738.833 26.0612C738.833 26.144 738.829 26.2421 738.82 26.3554C738.807 26.6169 738.713 26.824 738.539 26.9765C738.369 27.1291 738.138 27.2054 737.846 27.2054ZM737.846 26.7215C737.942 26.7215 738.016 26.7019 738.068 26.6627C738.125 26.6235 738.166 26.5733 738.192 26.5123C738.218 26.4513 738.231 26.3881 738.231 26.3227C738.24 26.2137 738.245 26.1222 738.245 26.0481C738.245 25.9696 738.24 25.8803 738.231 25.78C738.227 25.6797 738.197 25.5882 738.14 25.5054C738.083 25.4226 737.985 25.3812 737.846 25.3812C737.711 25.3812 737.615 25.4226 737.558 25.5054C737.501 25.5882 737.471 25.6797 737.466 25.78C737.462 25.8803 737.46 25.9696 737.46 26.0481C737.46 26.1222 737.462 26.2137 737.466 26.3227C737.471 26.3881 737.484 26.4513 737.506 26.5123C737.532 26.5733 737.571 26.6235 737.623 26.6627C737.68 26.7019 737.754 26.7215 737.846 26.7215Z" fill="#1A60FE"/>
<path d="M734.404 34.5961L735.712 33.2885M735.712 33.2885L737.019 34.5961M735.712 33.2885V37.8654" stroke="#1A60FE" stroke-width="0.653846" stroke-linecap="round" stroke-linejoin="round"/>
<rect x="705.846" y="87.5577" width="70.0769" height="16" rx="2.61539" fill="#F4EDE5"/>
<path d="M716.507 95.5656V96.2322H712.683V95.5656H716.507ZM714.952 93.9374V97.9984H714.243V93.9374H714.952ZM718.196 95.9027L717.629 95.7572L717.909 92.9796H720.771V93.6347H718.511L718.342 95.1518C718.444 95.0931 718.573 95.0382 718.729 94.9871C718.887 94.936 719.069 94.9105 719.273 94.9105C719.531 94.9105 719.762 94.9552 719.966 95.0446C720.171 95.1314 720.344 95.2566 720.487 95.42C720.633 95.5835 720.744 95.7801 720.821 96.01C720.897 96.2399 720.936 96.4966 720.936 96.7801C720.936 97.0482 720.899 97.2947 720.825 97.5195C720.753 97.7442 720.645 97.9409 720.499 98.1095C720.353 98.2755 720.17 98.4045 719.947 98.4964C719.728 98.5884 719.468 98.6343 719.17 98.6343C718.945 98.6343 718.732 98.6037 718.53 98.5424C718.331 98.4785 718.152 98.3828 717.993 98.255C717.838 98.1248 717.71 97.9639 717.61 97.7723C717.513 97.5782 717.452 97.3509 717.426 97.0904H718.101C718.131 97.2998 718.193 97.4761 718.285 97.6191C718.377 97.7621 718.497 97.8707 718.645 97.9447C718.795 98.0162 718.97 98.052 719.17 98.052C719.338 98.052 719.488 98.0226 719.618 97.9639C719.748 97.9051 719.858 97.8209 719.947 97.711C720.037 97.6012 720.104 97.4684 720.15 97.3126C720.199 97.1568 720.223 96.9818 720.223 96.7877C720.223 96.6115 720.199 96.448 720.15 96.2973C720.102 96.1467 720.029 96.0151 719.932 95.9027C719.837 95.7904 719.721 95.7035 719.583 95.6422C719.445 95.5784 719.287 95.5464 719.108 95.5464C718.871 95.5464 718.691 95.5784 718.568 95.6422C718.448 95.7061 718.324 95.7929 718.196 95.9027ZM721.652 94.3473V94.0523C721.652 93.8403 721.698 93.6475 721.79 93.4738C721.882 93.3001 722.014 93.1609 722.185 93.0562C722.356 92.9515 722.559 92.8991 722.794 92.8991C723.034 92.8991 723.238 92.9515 723.407 93.0562C723.578 93.1609 723.709 93.3001 723.801 93.4738C723.893 93.6475 723.939 93.8403 723.939 94.0523V94.3473C723.939 94.5542 723.893 94.7445 723.801 94.9181C723.712 95.0918 723.582 95.231 723.411 95.3357C723.242 95.4404 723.039 95.4928 722.801 95.4928C722.564 95.4928 722.358 95.4404 722.185 95.3357C722.014 95.231 721.882 95.0918 721.79 94.9181C721.698 94.7445 721.652 94.5542 721.652 94.3473ZM722.185 94.0523V94.3473C722.185 94.4648 722.206 94.5759 722.25 94.6806C722.296 94.7853 722.365 94.8709 722.457 94.9373C722.549 95.0011 722.664 95.0331 722.801 95.0331C722.939 95.0331 723.053 95.0011 723.142 94.9373C723.232 94.8709 723.298 94.7853 723.342 94.6806C723.385 94.5759 723.407 94.4648 723.407 94.3473V94.0523C723.407 93.9323 723.384 93.8199 723.338 93.7152C723.294 93.6079 723.227 93.5223 723.135 93.4585C723.045 93.3921 722.932 93.3589 722.794 93.3589C722.658 93.3589 722.545 93.3921 722.453 93.4585C722.363 93.5223 722.296 93.6079 722.25 93.7152C722.206 93.8199 722.185 93.9323 722.185 94.0523ZM724.368 97.4888V97.19C724.368 96.9806 724.414 96.789 724.506 96.6153C724.598 96.4416 724.73 96.3024 724.901 96.1977C725.072 96.093 725.275 96.0407 725.51 96.0407C725.75 96.0407 725.955 96.093 726.123 96.1977C726.294 96.3024 726.426 96.4416 726.518 96.6153C726.61 96.789 726.656 96.9806 726.656 97.19V97.4888C726.656 97.6983 726.61 97.8898 726.518 98.0635C726.428 98.2372 726.298 98.3764 726.127 98.4811C725.958 98.5858 725.755 98.6382 725.518 98.6382C725.28 98.6382 725.076 98.5858 724.905 98.4811C724.734 98.3764 724.601 98.2372 724.506 98.0635C724.414 97.8898 724.368 97.6983 724.368 97.4888ZM724.901 97.19V97.4888C724.901 97.6063 724.923 97.7187 724.966 97.826C725.012 97.9307 725.081 98.0162 725.173 98.0826C725.265 98.1465 725.38 98.1784 725.518 98.1784C725.656 98.1784 725.769 98.1465 725.859 98.0826C725.951 98.0162 726.018 97.9307 726.062 97.826C726.105 97.7212 726.127 97.6089 726.127 97.4888V97.19C726.127 97.07 726.104 96.9576 726.058 96.8529C726.015 96.7481 725.947 96.6639 725.855 96.6C725.766 96.5336 725.651 96.5004 725.51 96.5004C725.375 96.5004 725.261 96.5336 725.169 96.6C725.08 96.6639 725.012 96.7481 724.966 96.8529C724.923 96.9576 724.901 97.07 724.901 97.19ZM725.686 93.7726L722.962 98.1325L722.564 97.8796L725.288 93.5198L725.686 93.7726ZM731.648 96.3701H730.157V95.7686H731.648C731.936 95.7686 732.17 95.7227 732.349 95.6307C732.527 95.5388 732.658 95.4111 732.739 95.2476C732.824 95.0841 732.866 94.8977 732.866 94.6883C732.866 94.4967 732.824 94.3166 732.739 94.1481C732.658 93.9795 732.527 93.8441 732.349 93.742C732.17 93.6373 731.936 93.5849 731.648 93.5849H730.33V98.5577H729.59V92.9796H731.648C732.069 92.9796 732.425 93.0524 732.716 93.198C733.008 93.3435 733.229 93.5453 733.379 93.8033C733.53 94.0587 733.605 94.3511 733.605 94.6806C733.605 95.0382 733.53 95.3434 733.379 95.5962C733.229 95.8491 733.008 96.0419 732.716 96.1747C732.425 96.305 732.069 96.3701 731.648 96.3701ZM736.831 97.8489V95.715C736.831 95.5515 736.798 95.4098 736.731 95.2898C736.668 95.1672 736.571 95.0727 736.44 95.0063C736.31 94.9398 736.149 94.9066 735.958 94.9066C735.779 94.9066 735.622 94.9373 735.486 94.9986C735.354 95.0599 735.249 95.1403 735.172 95.2399C735.098 95.3396 735.061 95.4468 735.061 95.5618H734.352C734.352 95.4136 734.391 95.2668 734.467 95.1212C734.544 94.9756 734.654 94.8441 734.797 94.7266C734.942 94.6065 735.116 94.512 735.318 94.4431C735.522 94.3716 735.749 94.3358 736 94.3358C736.301 94.3358 736.567 94.3869 736.797 94.489C737.029 94.5912 737.21 94.7457 737.341 94.9526C737.473 95.1569 737.54 95.4136 737.54 95.7227V97.6536C737.54 97.7915 737.551 97.9383 737.574 98.0941C737.6 98.2499 737.637 98.384 737.685 98.4964V98.5577H736.946C736.91 98.476 736.882 98.3674 736.862 98.2321C736.841 98.0941 736.831 97.9664 736.831 97.8489ZM736.954 96.0445L736.961 96.5425H736.245C736.043 96.5425 735.863 96.5591 735.705 96.5923C735.546 96.623 735.414 96.6702 735.306 96.7341C735.199 96.7979 735.117 96.8784 735.061 96.9755C735.005 97.07 734.977 97.1811 734.977 97.3088C734.977 97.439 735.006 97.5578 735.065 97.6651C735.124 97.7723 735.212 97.8579 735.329 97.9217C735.449 97.983 735.596 98.0137 735.77 98.0137C735.987 98.0137 736.179 97.9677 736.345 97.8758C736.511 97.7838 736.642 97.6714 736.739 97.5386C736.839 97.4058 736.892 97.2768 736.9 97.1517L737.203 97.4927C737.185 97.5999 737.136 97.7187 737.057 97.8489C736.978 97.9792 736.872 98.1044 736.739 98.2244C736.609 98.3419 736.453 98.4402 736.272 98.5194C736.093 98.596 735.891 98.6343 735.666 98.6343C735.385 98.6343 735.139 98.5794 734.927 98.4696C734.718 98.3598 734.554 98.2129 734.437 98.029C734.322 97.8426 734.264 97.6344 734.264 97.4045C734.264 97.1823 734.308 96.9869 734.394 96.8184C734.481 96.6473 734.606 96.5055 734.77 96.3931C734.933 96.2782 735.13 96.1913 735.36 96.1326C735.59 96.0739 735.846 96.0445 736.13 96.0445H736.954ZM741.068 97.4582C741.068 97.356 741.045 97.2615 740.999 97.1747C740.956 97.0853 740.865 97.0048 740.727 96.9333C740.592 96.8592 740.388 96.7954 740.114 96.7418C739.885 96.6932 739.676 96.6358 739.49 96.5694C739.306 96.5029 739.149 96.4225 739.019 96.328C738.891 96.2335 738.793 96.1224 738.724 95.9947C738.655 95.867 738.62 95.7176 738.62 95.5464C738.62 95.383 738.656 95.2285 738.728 95.0829C738.802 94.9373 738.905 94.8083 739.038 94.6959C739.173 94.5835 739.335 94.4954 739.524 94.4316C739.713 94.3677 739.924 94.3358 740.157 94.3358C740.489 94.3358 740.772 94.3945 741.007 94.512C741.242 94.6295 741.422 94.7866 741.547 94.9833C741.672 95.1774 741.735 95.3932 741.735 95.6307H741.026C741.026 95.5158 740.992 95.4047 740.923 95.2974C740.856 95.1876 740.758 95.0969 740.628 95.0254C740.5 94.9539 740.343 94.9181 740.157 94.9181C739.96 94.9181 739.8 94.9488 739.678 95.0101C739.558 95.0688 739.469 95.1442 739.413 95.2361C739.36 95.3281 739.333 95.4251 739.333 95.5273C739.333 95.6039 739.346 95.6729 739.371 95.7342C739.399 95.7929 739.448 95.8478 739.517 95.8989C739.586 95.9474 739.683 95.9934 739.808 96.0368C739.933 96.0802 740.093 96.1237 740.287 96.1671C740.626 96.2437 740.906 96.3357 741.126 96.4429C741.345 96.5502 741.509 96.6817 741.616 96.8375C741.723 96.9933 741.777 97.1823 741.777 97.4045C741.777 97.5859 741.739 97.7519 741.662 97.9026C741.588 98.0533 741.48 98.1835 741.337 98.2934C741.196 98.4006 741.027 98.4849 740.831 98.5462C740.637 98.605 740.418 98.6343 740.176 98.6343C739.81 98.6343 739.501 98.5692 739.249 98.4389C738.996 98.3087 738.804 98.1401 738.674 97.9332C738.544 97.7264 738.478 97.508 738.478 97.2781H739.191C739.201 97.4722 739.257 97.6267 739.36 97.7417C739.462 97.8541 739.587 97.9345 739.735 97.983C739.883 98.029 740.03 98.052 740.176 98.052C740.37 98.052 740.532 98.0265 740.662 97.9754C740.795 97.9243 740.896 97.8541 740.965 97.7647C741.034 97.6753 741.068 97.5731 741.068 97.4582ZM744.444 94.4124V94.9564H742.202V94.4124H744.444ZM742.961 93.4048H743.67V97.531C743.67 97.6714 743.691 97.7774 743.735 97.8489C743.778 97.9205 743.834 97.9677 743.903 97.9907C743.972 98.0137 744.046 98.0252 744.126 98.0252C744.184 98.0252 744.246 98.0201 744.309 98.0099C744.376 97.9971 744.426 97.9869 744.459 97.9792L744.463 98.5577C744.407 98.5756 744.332 98.5922 744.241 98.6075C744.151 98.6254 744.043 98.6343 743.915 98.6343C743.741 98.6343 743.582 98.5999 743.436 98.5309C743.29 98.4619 743.174 98.347 743.087 98.1861C743.003 98.0226 742.961 97.803 742.961 97.5271V93.4048ZM747.926 95.2361V98.5577H747.213V94.4124H747.888L747.926 95.2361ZM747.78 96.328L747.451 96.3165C747.454 96.033 747.491 95.7712 747.562 95.5311C747.634 95.2885 747.74 95.0778 747.88 94.899C748.021 94.7202 748.196 94.5823 748.405 94.4852C748.614 94.3856 748.857 94.3358 749.133 94.3358C749.327 94.3358 749.506 94.3639 749.669 94.4201C749.833 94.4737 749.974 94.5593 750.094 94.6768C750.215 94.7943 750.308 94.945 750.374 95.1288C750.441 95.3127 750.474 95.5349 750.474 95.7955V98.5577H749.765V95.8299C749.765 95.6128 749.728 95.4392 749.654 95.3089C749.582 95.1787 749.48 95.0841 749.347 95.0254C749.215 94.9641 749.059 94.9335 748.88 94.9335C748.671 94.9335 748.496 94.9705 748.355 95.0446C748.215 95.1186 748.102 95.2208 748.018 95.3511C747.934 95.4813 747.872 95.6307 747.834 95.7993C747.798 95.9653 747.78 96.1415 747.78 96.328ZM750.466 95.9372L749.991 96.0828C749.994 95.8555 750.031 95.6371 750.102 95.4277C750.176 95.2182 750.282 95.0318 750.42 94.8683C750.561 94.7049 750.733 94.5759 750.937 94.4814C751.142 94.3843 751.375 94.3358 751.638 94.3358C751.861 94.3358 752.057 94.3652 752.228 94.4239C752.402 94.4827 752.548 94.5733 752.665 94.6959C752.785 94.816 752.876 94.9705 752.937 95.1595C752.998 95.3485 753.029 95.5733 753.029 95.8338V98.5577H752.317V95.8261C752.317 95.5937 752.279 95.4136 752.205 95.2859C752.134 95.1557 752.032 95.065 751.899 95.0139C751.769 94.9603 751.613 94.9335 751.432 94.9335C751.276 94.9335 751.138 94.9603 751.018 95.0139C750.898 95.0675 750.797 95.1416 750.715 95.2361C750.633 95.3281 750.571 95.4341 750.527 95.5541C750.487 95.6741 750.466 95.8018 750.466 95.9372ZM753.914 96.531V96.4429C753.914 96.1441 753.958 95.867 754.044 95.6116C754.131 95.3536 754.256 95.1301 754.42 94.9411C754.583 94.7496 754.781 94.6014 755.014 94.4967C755.246 94.3894 755.507 94.3358 755.795 94.3358C756.086 94.3358 756.348 94.3894 756.581 94.4967C756.816 94.6014 757.015 94.7496 757.178 94.9411C757.344 95.1301 757.471 95.3536 757.558 95.6116C757.644 95.867 757.688 96.1441 757.688 96.4429V96.531C757.688 96.8299 757.644 97.107 757.558 97.3624C757.471 97.6178 757.344 97.8413 757.178 98.0328C757.015 98.2218 756.817 98.37 756.584 98.4773C756.355 98.582 756.094 98.6343 755.803 98.6343C755.512 98.6343 755.25 98.582 755.017 98.4773C754.785 98.37 754.586 98.2218 754.42 98.0328C754.256 97.8413 754.131 97.6178 754.044 97.3624C753.958 97.107 753.914 96.8299 753.914 96.531ZM754.623 96.4429V96.531C754.623 96.7379 754.647 96.9333 754.696 97.1172C754.744 97.2985 754.817 97.4595 754.914 97.5999C755.014 97.7404 755.138 97.8515 755.286 97.9332C755.434 98.0124 755.606 98.052 755.803 98.052C755.997 98.052 756.167 98.0124 756.312 97.9332C756.461 97.8515 756.583 97.7404 756.68 97.5999C756.777 97.4595 756.85 97.2985 756.899 97.1172C756.95 96.9333 756.975 96.7379 756.975 96.531V96.4429C756.975 96.2386 756.95 96.0458 756.899 95.8644C756.85 95.6805 756.776 95.5183 756.676 95.3779C756.579 95.2348 756.457 95.1225 756.309 95.0407C756.163 94.959 755.992 94.9181 755.795 94.9181C755.601 94.9181 755.43 94.959 755.282 95.0407C755.136 95.1225 755.014 95.2348 754.914 95.3779C754.817 95.5183 754.744 95.6805 754.696 95.8644C754.647 96.0458 754.623 96.2386 754.623 96.4429ZM759.285 95.2974V98.5577H758.577V94.4124H759.247L759.285 95.2974ZM759.117 96.328L758.822 96.3165C758.824 96.033 758.866 95.7712 758.948 95.5311C759.03 95.2885 759.145 95.0778 759.293 94.899C759.441 94.7202 759.617 94.5823 759.822 94.4852C760.029 94.3856 760.257 94.3358 760.507 94.3358C760.712 94.3358 760.896 94.3639 761.059 94.4201C761.223 94.4737 761.362 94.5606 761.477 94.6806C761.594 94.8006 761.684 94.9564 761.745 95.148C761.806 95.337 761.837 95.5681 761.837 95.8414V98.5577H761.124V95.8338C761.124 95.6167 761.092 95.443 761.029 95.3127C760.965 95.1799 760.871 95.0841 760.749 95.0254C760.626 94.9641 760.476 94.9335 760.297 94.9335C760.121 94.9335 759.96 94.9705 759.814 95.0446C759.671 95.1186 759.547 95.2208 759.442 95.3511C759.34 95.4813 759.26 95.6307 759.201 95.7993C759.145 95.9653 759.117 96.1415 759.117 96.328ZM764.649 94.4124V94.9564H762.408V94.4124H764.649ZM763.166 93.4048H763.875V97.531C763.875 97.6714 763.897 97.7774 763.94 97.8489C763.984 97.9205 764.04 97.9677 764.109 97.9907C764.178 98.0137 764.252 98.0252 764.331 98.0252C764.39 98.0252 764.451 98.0201 764.515 98.0099C764.581 97.9971 764.631 97.9869 764.664 97.9792L764.668 98.5577C764.612 98.5756 764.538 98.5922 764.446 98.6075C764.356 98.6254 764.248 98.6343 764.12 98.6343C763.947 98.6343 763.787 98.5999 763.641 98.5309C763.496 98.4619 763.38 98.347 763.293 98.1861C763.208 98.0226 763.166 97.803 763.166 97.5271V93.4048ZM766.189 92.6731V98.5577H765.48V92.6731H766.189ZM766.02 96.328L765.725 96.3165C765.728 96.033 765.77 95.7712 765.852 95.5311C765.934 95.2885 766.049 95.0778 766.197 94.899C766.345 94.7202 766.521 94.5823 766.725 94.4852C766.932 94.3856 767.161 94.3358 767.411 94.3358C767.616 94.3358 767.799 94.3639 767.963 94.4201C768.126 94.4737 768.266 94.5606 768.38 94.6806C768.498 94.8006 768.587 94.9564 768.649 95.148C768.71 95.337 768.741 95.5681 768.741 95.8414V98.5577H768.028V95.8338C768.028 95.6167 767.996 95.443 767.932 95.3127C767.868 95.1799 767.775 95.0841 767.653 95.0254C767.53 94.9641 767.379 94.9335 767.2 94.9335C767.024 94.9335 766.863 94.9705 766.718 95.0446C766.575 95.1186 766.451 95.2208 766.346 95.3511C766.244 95.4813 766.164 95.6307 766.105 95.7993C766.049 95.9653 766.02 96.1415 766.02 96.328Z" fill="#303030"/>
<defs>
<linearGradient id="paint0_linear_2015_23" x1="235" y1="46.5" x2="257" y2="106" gradientUnits="userSpaceOnUse">
<stop stop-color="#1A60FE"/>
<stop offset="1" stop-color="white" stop-opacity="0"/>
</linearGradient>
<linearGradient id="paint1_linear_2015_23" x1="738.654" y1="13.0192" x2="753.039" y2="51.9231" gradientUnits="userSpaceOnUse">
<stop stop-color="#1A60FE"/>
<stop offset="1" stop-color="white" stop-opacity="0"/>
</linearGradient>
</defs>
</svg>
